<?xml version="1.0" standalone="no"?>
<!DOCTYPE svg PUBLIC "-//W3C//DTD SVG 1.1//EN"
  "http://www.w3.org/Graphics/SVG/1.1/DTD/svg11.dtd">
<!-- Created with matplotlib (http://matplotlib.sourceforge.net/) -->
<svg width="576pt" height="432pt" viewBox="0 0 576 432"
   xmlns="http://www.w3.org/2000/svg"
   xmlns:xlink="http://www.w3.org/1999/xlink"
   version="1.1"
   id="svg1">
<g id="figure1">
<path style="fill: #ffffff; stroke: #ffffff; stroke-width: 1.000000; stroke-linejoin: miter; stroke-linecap: square;  opacity: 1.000000"  d="M0.000000 432.000000L576.000000 432.000000L576.000000 0.000000
L0.000000 0.000000L0.000000 432.000000"/>
<g id="axes1">
<path style="fill: #ffffff; opacity: 1.000000"  d="M72.000000 388.800000L518.400000 388.800000L518.400000 43.200000
L72.000000 43.200000L72.000000 388.800000"/>
<g id="line2d1">
<defs>
  <clipPath id="p50431ccdcb28178602d99d9270004dde">
<rect x="72.000000" y="43.200000" width="446.400000" height="345.600000"/>
  </clipPath>
</defs><path style="fill: none; stroke: #0000ff; stroke-width: 1.000000; stroke-linejoin: miter; stroke-linecap: square;  opacity: 1.000000" clip-path="url(#p50431ccdcb28178602d99d9270004dde)" d="M72.000000 291.310980L72.892800 278.782800L73.785600 268.612620
L74.678400 263.296740L75.571200 261.081840L76.464000 259.648140
L77.356800 259.358820L78.249600 259.300080L79.142400 259.116780
L80.035200 259.004280L80.928000 258.493140L81.820800 256.976040
L82.713600 256.903260L83.606400 256.888380L84.499200 256.763340
L85.392000 256.705740L86.284800 256.741080L87.177600 256.834440
L88.070400 256.734660L88.963200 256.751700L89.856000 256.620540
L90.748800 256.712760L91.641600 256.687020L92.534400 256.688160
L93.427200 256.678560L94.320000 256.662540L95.212800 256.755180
L96.105600 256.659120L96.998400 256.580400L97.891200 256.566840
L98.784000 195.405600L99.676800 195.117810L100.569600 194.866560
L101.462400 194.745000L102.355200 194.676600L103.248000 194.542950
L104.140800 194.428200L105.033600 194.513670L105.926400 194.492010
L106.819200 194.445000L107.712000 194.417700L108.604800 194.503350
L109.497600 194.443230L110.390400 194.405250L111.283200 194.294310
L112.176000 194.355210L113.068800 194.232660L113.961600 194.229270
L114.854400 194.383710L115.747200 194.271900L116.640000 194.341350
L117.532800 194.311110L118.425600 194.147730L119.318400 194.179830
L120.211200 194.212290L121.104000 194.313930L121.996800 194.271180
L122.889600 194.314650L123.782400 194.282910L124.675200 194.308440
L125.568000 194.304570L126.460800 194.346720L127.353600 194.249250
L128.246400 194.266830L129.139200 194.259780L130.032000 194.230020
L130.924800 194.264370L131.817600 194.245080L132.710400 194.166630
L133.603200 194.295420L134.496000 194.249460L135.388800 194.267070
L136.281600 194.312730L137.174400 194.377890L138.067200 194.311470
L138.960000 194.263590L139.852800 194.349000L140.745600 194.362590
L141.638400 194.392440L142.531200 194.355210L143.424000 189.300420
L144.316800 188.618790L145.209600 188.443080L146.102400 188.305320
L146.995200 187.622760L147.888000 187.515150L148.780800 187.515240
L149.673600 187.487250L150.566400 187.339020L151.459200 187.356420
L152.352000 187.293780L153.244800 187.343400L154.137600 187.270680
L155.030400 187.243200L155.923200 187.268190L156.816000 187.320150
L157.708800 187.277400L158.601600 187.236660L159.494400 187.106880
L160.387200 187.257780L161.280000 187.119870L162.172800 187.140810
L163.065600 187.070580L163.958400 187.091400L164.851200 186.993660
L165.744000 186.991260L166.636800 187.052160L167.529600 187.133520
L168.422400 187.108020L169.315200 187.109970L170.208000 187.055340
L171.100800 187.011360L171.993600 186.968700L172.886400 187.058190
L173.779200 186.970920L174.672000 186.973530L175.564800 186.930210
L176.457600 186.957150L177.350400 187.029330L178.243200 186.966540
L179.136000 187.014600L180.028800 186.954900L180.921600 186.918300
L181.814400 186.848130L182.707200 186.855420L183.600000 186.922320
L184.492800 186.908910L185.385600 186.917130L186.278400 186.867090
L187.171200 187.016850L188.064000 186.921300L188.956800 186.993600
L189.849600 187.030020L190.742400 187.032180L191.635200 187.078860
L192.528000 187.123980L193.420800 186.472980L194.313600 186.495060
L195.206400 186.409740L196.099200 186.437700L196.992000 186.546900
L197.884800 186.443100L198.777600 186.497310L199.670400 186.450660
L200.563200 186.398160L201.456000 186.463560L202.348800 186.531900
L203.241600 186.463680L204.134400 186.410280L205.027200 186.459900
L205.920000 92.437410L206.812800 92.411250L207.705600 92.319120
L208.598400 92.371620L209.491200 92.429820L210.384000 92.357460
L211.276800 92.380500L212.169600 92.397270L213.062400 92.439510
L213.955200 92.429820L214.848000 92.501010L215.740800 92.355900
L216.633600 92.366370L217.526400 92.394540L218.419200 92.367540
L219.312000 92.349180L220.204800 92.381010L221.097600 92.427870
L221.990400 92.413380L222.883200 92.371440L223.776000 92.401770
L224.668800 92.364930L225.561600 92.374980L226.454400 92.377320
L227.347200 92.363820L228.240000 92.327220L229.132800 92.368980
L230.025600 92.445840L230.918400 92.406870L231.811200 92.410800
L232.704000 92.369340L233.596800 92.363850L234.489600 92.387370
L235.382400 92.445120L236.275200 92.426490L237.168000 92.390160
L238.060800 92.390100L238.953600 92.376870L239.846400 92.320830
L240.739200 92.385600L241.632000 92.396250L242.524800 92.452140
L243.417600 92.426550L244.310400 92.465100L245.203200 92.468130
L246.096000 92.454090L246.988800 92.404260L247.881600 92.360040
L248.774400 92.354460L249.667200 92.386260L250.560000 92.369520
L251.452800 92.354040L252.345600 92.360580L253.238400 92.342340
L254.131200 92.318520L255.024000 92.372310L255.916800 92.344560
L256.809600 92.360460L257.702400 92.359080L258.595200 92.353650
L259.488000 92.390190L260.380800 92.370030L261.273600 92.339040
L262.166400 92.443200L263.059200 92.381700L263.952000 92.385600
L264.844800 92.369010L265.737600 92.382180L266.630400 92.361120
L267.523200 92.364480L268.416000 92.442180L269.308800 92.398200
L270.201600 92.412780L271.094400 92.349600L271.987200 92.370480
L272.880000 92.373780L273.772800 92.404680L274.665600 92.378700
L275.558400 92.397870L276.451200 92.461860L277.344000 92.373300
L278.236800 92.385900L279.129600 92.420940L280.022400 92.356860
L280.915200 92.358210L281.808000 92.473710L282.700800 92.424690
L283.593600 92.364030L284.486400 92.403300L285.379200 92.353230
L286.272000 92.408160L287.164800 92.354940L288.057600 92.356620
L288.950400 92.351490L289.843200 92.379990L290.736000 92.343870
L291.628800 92.368350L292.521600 92.380890L293.414400 92.406720
L294.307200 92.402010L295.200000 92.429280L296.092800 92.374530
L296.985600 92.415960L297.878400 92.362080L298.771200 92.387700
L299.664000 92.399460L300.556800 92.430210L301.449600 92.357940
L302.342400 92.350230L303.235200 92.398530L304.128000 92.346810
L305.020800 92.382060L305.913600 92.354820L306.806400 92.391090
L307.699200 92.368500L308.592000 92.357010L309.484800 92.356980
L310.377600 92.391720L311.270400 92.405820L312.163200 92.389080
L313.056000 92.434260L313.948800 92.371260L314.841600 92.393700
L315.734400 92.460780L316.627200 92.385360L317.520000 92.351760
L318.412800 92.437770L319.305600 92.383590L320.198400 92.428350
L321.091200 92.375940L321.984000 92.363430L322.876800 92.345580
L323.769600 92.414220L324.662400 92.395380L325.555200 92.368350
L326.448000 92.397420L327.340800 92.414010L328.233600 92.363640
L329.126400 92.480700L330.019200 92.371830L330.912000 92.377860
L331.804800 92.323620L332.697600 92.400720L333.590400 92.343540
L334.483200 92.337030L335.376000 92.398620L336.268800 92.421510
L337.161600 92.334630L338.054400 92.376420L338.947200 92.405550
L339.840000 92.369310L340.732800 92.364570L341.625600 92.369040
L342.518400 92.442900L343.411200 92.432910L344.304000 92.387280
L345.196800 92.358540L346.089600 92.404500L346.982400 92.431800
L347.875200 92.387400L348.768000 92.357520L349.660800 92.388900
L350.553600 92.386800L351.446400 92.355720L352.339200 92.363700
L353.232000 92.404170L354.124800 92.360790L355.017600 92.367900
L355.910400 92.376060L356.803200 92.376690L357.696000 92.444460
L358.588800 92.363340L359.481600 92.468100L360.374400 92.402160
L361.267200 92.397210L362.160000 92.349060L363.052800 92.382270
L363.945600 92.384010L364.838400 92.372400L365.731200 92.360160
L366.624000 92.353140L367.516800 92.455320L368.409600 92.371320
L369.302400 92.372430L370.195200 92.325600L371.088000 92.406510
L371.980800 92.431320L372.873600 92.380230L373.766400 92.380260
L374.659200 92.414700L375.552000 92.395860L376.444800 92.349000
L377.337600 92.328900L378.230400 92.381400L379.123200 92.455740
L380.016000 92.368500L380.908800 92.405490L381.801600 92.373090
L382.694400 92.373120L383.587200 92.412000L384.480000 75.737280
L385.372800 75.706830L386.265600 75.714210L387.158400 75.739800
L388.051200 75.715680L388.944000 75.709980L389.836800 75.702660
L390.729600 75.742200L391.622400 75.718260L392.515200 75.700590
L393.408000 75.737880L394.300800 75.702240L395.193600 75.724950
L396.086400 75.743700L396.979200 75.709380L397.872000 75.772530
L398.764800 75.793350L399.657600 75.740280L400.550400 75.729240
L401.443200 75.727680L402.336000 75.709530L403.228800 75.736500
L404.121600 75.714600L405.014400 75.723870L405.907200 75.735690
L406.800000 75.727770L407.692800 75.729840L408.585600 75.744780
L409.478400 75.717780L410.371200 75.722340L411.264000 75.696780
L412.156800 75.728190L413.049600 75.696660L413.942400 75.700620
L414.835200 75.751890L415.728000 75.700620L416.620800 75.704040
L417.513600 75.724140L418.406400 75.732840L419.299200 75.724890
L420.192000 75.704940L421.084800 75.755940L421.977600 75.729810
L422.870400 75.750150L423.763200 75.694860L424.656000 75.708000
L425.548800 75.737100L426.441600 75.720600L427.334400 75.705450
L428.227200 75.702900L429.120000 75.722490L430.012800 75.747270
L430.905600 75.719490L431.798400 75.718080L432.691200 75.726540
L433.584000 75.703650L434.476800 75.741510L435.369600 75.706200
L436.262400 75.728220L437.155200 75.755700L438.048000 75.775950
L438.940800 75.695760L439.833600 75.705840L440.726400 75.710340
L441.619200 75.706320L442.512000 75.736230L443.404800 75.742980
L444.297600 75.744030L445.190400 75.711120L446.083200 75.707610
L446.976000 75.699330L447.868800 75.720900L448.761600 75.698580
L449.654400 75.738000L450.547200 75.700740L451.440000 75.717570
L452.332800 75.710640L453.225600 75.783300L454.118400 75.762480
L455.011200 75.722460L455.904000 75.782070L456.796800 75.733620
L457.689600 75.717270L458.582400 75.732060L459.475200 75.743640
L460.368000 75.723600L461.260800 75.706770L462.153600 75.706320
L463.046400 75.702000L463.939200 75.714600L464.832000 75.696660
L465.724800 75.722820L466.617600 75.714510L467.510400 75.782790
L468.403200 75.751110L469.296000 75.742740L470.188800 75.745140
L471.081600 75.717810L471.974400 75.739830L472.867200 75.742500
L473.760000 75.725640L474.652800 75.730890L475.545600 75.717900
L476.438400 75.752040L477.331200 75.719280L478.224000 75.803940
L479.116800 75.719580L480.009600 75.766530L480.902400 75.718620
L481.795200 75.721980L482.688000 75.759810L483.580800 75.709890
L484.473600 75.736980L485.366400 75.759420L486.259200 75.720900
L487.152000 75.778440L488.044800 75.757530L488.937600 75.722940
L489.830400 75.710640L490.723200 75.720120L491.616000 75.786120"/>
</g>
<g id="line2d2">
<path style="fill: none; stroke: #008000; stroke-width: 1.000000; stroke-linejoin: miter; stroke-linecap: square;  opacity: 1.000000" clip-path="url(#p50431ccdcb28178602d99d9270004dde)" d="M72.000000 296.885288L72.892800 281.424338L73.785600 267.974963
L74.678400 261.186375L75.571200 252.790125L76.464000 248.054925
L77.356800 244.621200L78.249600 244.543088L79.142400 244.031138
L80.035200 244.331363L80.928000 222.487163L81.820800 221.639663
L82.713600 219.853463L83.606400 218.819925L84.499200 218.105775
L85.392000 218.349188L86.284800 215.908463L87.177600 213.306375
L88.070400 211.703213L88.963200 210.597375L89.856000 210.611363
L90.748800 208.729613L91.641600 206.570813L92.534400 205.727288
L93.427200 203.849400L94.320000 202.663800L95.212800 200.422425
L96.105600 200.779538L96.998400 200.063475L97.891200 197.779350
L98.784000 255.625275L99.676800 255.762225L100.569600 256.229175
L101.462400 254.845725L102.355200 253.516913L103.248000 252.449888
L104.140800 249.698288L105.033600 247.604213L105.926400 245.543288
L106.819200 242.408138L107.712000 239.781825L108.604800 239.693700
L109.497600 235.905000L110.390400 234.380325L111.283200 230.538188
L112.176000 231.803625L113.068800 230.337563L113.961600 230.526750
L114.854400 230.291438L115.747200 229.052625L116.640000 224.954475
L117.532800 223.324575L118.425600 222.763913L119.318400 220.851563
L120.211200 221.785950L121.104000 221.246700L121.996800 219.094538
L122.889600 218.933888L123.782400 217.895475L124.675200 217.540313
L125.568000 214.884900L126.460800 213.902400L127.353600 211.679138
L128.246400 212.809275L129.139200 210.633300L130.032000 209.456550
L130.924800 209.328413L131.817600 207.302400L132.710400 206.584200
L133.603200 205.297538L134.496000 203.682075L135.388800 202.630725
L136.281600 202.093500L137.174400 199.420088L138.067200 199.162238
L138.960000 198.531000L139.852800 197.711063L140.745600 196.316888
L141.638400 194.957025L142.531200 191.033775L143.424000 195.676500
L144.316800 195.938138L145.209600 195.003975L146.102400 194.632950
L146.995200 195.069675L147.888000 193.644863L148.780800 192.995550
L149.673600 192.247463L150.566400 189.818438L151.459200 187.754550
L152.352000 187.163025L153.244800 182.613975L154.137600 179.272613
L155.030400 178.804238L155.923200 178.803525L156.816000 177.749775
L157.708800 177.159900L158.601600 177.470663L159.494400 178.104300
L160.387200 176.817188L161.280000 116.011013L162.172800 114.991538
L163.065600 115.629038L163.958400 115.482938L164.851200 113.409225
L165.744000 113.066025L166.636800 113.875313L167.529600 113.786925
L168.422400 113.722838L169.315200 113.171138L170.208000 111.605588
L171.100800 111.705750L171.993600 112.264463L172.886400 111.298238
L173.779200 111.497025L174.672000 111.515550L175.564800 110.199000
L176.457600 110.379263L177.350400 110.042063L178.243200 108.705713
L179.136000 109.299450L180.028800 109.222313L180.921600 107.756100
L181.814400 106.883400L182.707200 106.628100L183.600000 105.812400
L184.492800 105.984900L185.385600 105.626475L186.278400 105.245250
L187.171200 104.866125L188.064000 105.791513L188.956800 105.017100
L189.849600 104.501100L190.742400 103.289100L191.635200 102.860100
L192.528000 102.693938L193.420800 101.115188L194.313600 100.194525
L195.206400 100.682850L196.099200 100.741013L196.992000 100.070100
L197.884800 98.954288L198.777600 99.175425L199.670400 98.983425
L200.563200 97.836188L201.456000 96.902325L202.348800 95.595413
L203.241600 94.708838L204.134400 94.566488L205.027200 94.339425
L205.920000 184.071263L206.812800 184.786650L207.705600 184.368713
L208.598400 184.850588L209.491200 185.108588L210.384000 184.937138
L211.276800 185.055075L212.169600 184.427588L213.062400 184.803113
L213.955200 185.275613L214.848000 183.704813L215.740800 183.526163
L216.633600 182.710200L217.526400 183.579188L218.419200 183.526688
L219.312000 182.627738L220.204800 182.857800L221.097600 182.324138
L221.990400 180.884588L222.883200 181.620750L223.776000 181.116338
L224.668800 180.149400L225.561600 180.194813L226.454400 179.338425
L227.347200 179.214150L228.240000 179.859600L229.132800 179.147475
L230.025600 179.714138L230.918400 178.425338L231.811200 176.800013
L232.704000 176.216325L233.596800 175.283175L234.489600 174.532200
L235.382400 174.592613L236.275200 174.809363L237.168000 173.441513
L238.060800 172.847363L238.953600 170.466300L239.846400 171.070088
L240.739200 170.712150L241.632000 168.859163L242.524800 168.817050
L243.417600 167.563125L244.310400 167.003550L245.203200 167.508675
L246.096000 166.723988L246.988800 165.687000L247.881600 165.490538
L248.774400 166.084913L249.667200 164.941950L250.560000 163.530975
L251.452800 163.838963L252.345600 164.078775L253.238400 163.612463
L254.131200 163.163475L255.024000 162.834600L255.916800 160.968263
L256.809600 160.118100L257.702400 160.979138L258.595200 160.663800
L259.488000 160.466288L260.380800 158.315588L261.273600 158.791650
L262.166400 156.271200L263.059200 155.964338L263.952000 155.294213
L264.844800 154.453238L265.737600 152.597475L266.630400 153.374738
L267.523200 152.941988L268.416000 77.177325L269.308800 76.722263
L270.201600 76.304138L271.094400 76.846988L271.987200 76.960800
L272.880000 77.006663L273.772800 77.292600L274.665600 76.694363
L275.558400 77.216363L276.451200 77.130863L277.344000 77.331975
L278.236800 77.313150L279.129600 76.797675L280.022400 77.040675
L280.915200 76.825725L281.808000 76.969350L282.700800 76.869000
L283.593600 76.948763L284.486400 76.732238L285.379200 77.117700
L286.272000 76.151288L287.164800 76.434188L288.057600 77.173988
L288.950400 76.821750L289.843200 77.119163L290.736000 76.476188
L291.628800 77.232863L292.521600 77.137013L293.414400 76.335638
L294.307200 77.296688L295.200000 76.736588L296.092800 76.653375
L296.985600 77.051550L297.878400 77.335313L298.771200 76.570913
L299.664000 77.006663L300.556800 76.587075L301.449600 76.494375
L302.342400 77.062763L303.235200 77.346450L304.128000 77.153550
L305.020800 77.025563L305.913600 76.625175L306.806400 76.953563
L307.699200 77.509238L308.592000 76.587525L309.484800 76.784325
L310.377600 77.381513L311.270400 76.968225L312.163200 77.370075
L313.056000 77.213250L313.948800 77.045363L314.841600 76.748363
L315.734400 76.988625L316.627200 76.916063L317.520000 76.851525
L318.412800 76.922775L319.305600 76.956188L320.198400 76.468200
L321.091200 76.816013L321.984000 76.893938L322.876800 76.867838
L323.769600 77.149913L324.662400 76.822350L325.555200 77.098275
L326.448000 77.103413L327.340800 77.058938L328.233600 76.613813
L329.126400 77.060400L330.019200 76.728450L330.912000 76.709625
L331.804800 76.285650L332.697600 76.804425L333.590400 76.977300
L334.483200 76.489800L335.376000 77.501813L336.268800 76.107938
L337.161600 77.461538L338.054400 76.864425L338.947200 76.547738
L339.840000 76.878788L340.732800 76.755938L341.625600 76.435163
L342.518400 76.976625L343.411200 76.922813L344.304000 76.890788
L345.196800 76.910775L346.089600 76.613138L346.982400 77.520525
L347.875200 77.352038L348.768000 76.303088L349.660800 76.507050
L350.553600 76.428113L351.446400 76.853963L352.339200 76.599788
L353.232000 76.810425L354.124800 76.729875L355.017600 77.304413
L355.910400 77.034450L356.803200 77.460263L357.696000 76.746188
L358.588800 76.938413L359.481600 77.494650L360.374400 76.722000
L361.267200 77.539200L362.160000 77.245013L363.052800 77.180288
L363.945600 76.946175L364.838400 76.582238L365.731200 77.153663
L366.624000 76.452225L367.516800 76.551413L368.409600 76.747125
L369.302400 76.644675L370.195200 77.007563L371.088000 76.607100
L371.980800 77.342850L372.873600 76.852950L373.766400 77.119613
L374.659200 77.283525L375.552000 76.753463L376.444800 77.362613
L377.337600 76.734150L378.230400 77.251913L379.123200 77.399775
L380.016000 76.798763L380.908800 77.159025L381.801600 76.884188
L382.694400 76.995675L383.587200 76.780950L384.480000 93.840038
L385.372800 92.949188L386.265600 92.368763L387.158400 93.058538
L388.051200 92.425913L388.944000 90.340950L389.836800 90.082163
L390.729600 90.036375L391.622400 88.330688L392.515200 87.912788
L393.408000 86.656838L394.300800 85.684575L395.193600 85.970738
L396.086400 83.673038L396.979200 81.495300L397.872000 77.030850
L398.764800 76.916063L399.657600 77.810250L400.550400 77.047388
L401.443200 77.086200L402.336000 76.932000L403.228800 77.451638
L404.121600 77.693663L405.014400 77.842988L405.907200 77.438175
L406.800000 76.558200L407.692800 76.814063L408.585600 76.598550
L409.478400 76.493663L410.371200 76.860900L411.264000 76.425488
L412.156800 76.397363L413.049600 77.191313L413.942400 77.162813
L414.835200 77.754675L415.728000 77.000700L416.620800 77.524050
L417.513600 77.504663L418.406400 76.770150L419.299200 76.699275
L420.192000 77.317875L421.084800 76.846463L421.977600 77.160488
L422.870400 77.537888L423.763200 77.462625L424.656000 76.856288
L425.548800 77.143350L426.441600 76.635863L427.334400 76.644488
L428.227200 76.832213L429.120000 76.455150L430.012800 77.466263
L430.905600 76.425000L431.798400 76.725638L432.691200 76.614000
L433.584000 76.820738L434.476800 77.389838L435.369600 76.822200
L436.262400 76.489725L437.155200 76.945388L438.048000 76.527563
L438.940800 77.607713L439.833600 76.435913L440.726400 76.965000
L441.619200 76.826850L442.512000 76.589175L443.404800 76.344188
L444.297600 76.497300L445.190400 76.702538L446.083200 77.382113
L446.976000 77.009213L447.868800 76.656413L448.761600 76.491638
L449.654400 76.388888L450.547200 76.758863L451.440000 77.617763
L452.332800 76.638413L453.225600 76.843575L454.118400 76.745700
L455.011200 76.620000L455.904000 76.517400L456.796800 76.956038
L457.689600 76.341038L458.582400 76.729763L459.475200 76.404225
L460.368000 76.147013L461.260800 76.645125L462.153600 76.511438
L463.046400 77.076825L463.939200 76.555538L464.832000 76.892100
L465.724800 76.467375L466.617600 76.406138L467.510400 76.261800
L468.403200 76.495575L469.296000 76.593975L470.188800 76.140188
L471.081600 77.735813L471.974400 76.671938L472.867200 77.049450
L473.760000 76.830150L474.652800 76.735913L475.545600 76.660313
L476.438400 77.201663L477.331200 76.801088L478.224000 76.801613
L479.116800 76.898550L480.009600 76.530638L480.902400 76.834425
L481.795200 76.481025L482.688000 76.099275L483.580800 77.266650
L484.473600 76.512563L485.366400 76.272675L486.259200 76.401188
L487.152000 76.959788L488.044800 76.926188L488.937600 76.119000
L489.830400 76.801425L490.723200 76.329338L491.616000 76.375500"/>
</g>
<g id="line2d3">
<path style="fill: none; stroke: #ff0000; stroke-width: 1.000000; stroke-linejoin: miter; stroke-linecap: square;  opacity: 1.000000" clip-path="url(#p50431ccdcb28178602d99d9270004dde)" d="M72.000000 297.892163L72.892800 277.049438L73.785600 258.650175
L74.678400 249.564675L75.571200 245.747475L76.464000 242.547300
L77.356800 236.830725L78.249600 235.137938L79.142400 231.263363
L80.035200 230.834888L80.928000 247.865700L81.820800 243.814688
L82.713600 241.590338L83.606400 241.622963L84.499200 234.735150
L85.392000 232.511963L86.284800 230.193113L87.177600 225.499463
L88.070400 224.329350L88.963200 222.784050L89.856000 220.828500
L90.748800 219.691425L91.641600 217.609088L92.534400 215.309850
L93.427200 214.909800L94.320000 216.241538L95.212800 214.504013
L96.105600 209.169188L96.998400 209.532900L97.891200 205.567838
L98.784000 203.617725L99.676800 203.839538L100.569600 201.913275
L101.462400 201.393188L102.355200 195.773250L103.248000 191.838450
L104.140800 190.050488L105.033600 186.132450L105.926400 184.367363
L106.819200 184.262288L107.712000 185.012138L108.604800 184.389413
L109.497600 181.637588L110.390400 182.879438L111.283200 180.330263
L112.176000 180.870413L113.068800 177.317138L113.961600 176.664225
L114.854400 174.930150L115.747200 177.546188L116.640000 171.858563
L117.532800 174.350063L118.425600 174.843450L119.318400 172.163588
L120.211200 173.374575L121.104000 174.601688L121.996800 174.315600
L122.889600 171.250050L123.782400 170.017688L124.675200 171.867263
L125.568000 167.272838L126.460800 168.814238L127.353600 164.697375
L128.246400 163.518000L129.139200 162.752850L130.032000 161.805525
L130.924800 162.118163L131.817600 158.563800L132.710400 158.579550
L133.603200 156.753750L134.496000 158.481075L135.388800 154.246613
L136.281600 152.719425L137.174400 149.982075L138.067200 149.540775
L138.960000 150.997313L139.852800 147.916013L140.745600 145.890975
L141.638400 143.894813L142.531200 140.779163L143.424000 136.991888
L144.316800 132.601125L145.209600 134.236913L146.102400 133.176638
L146.995200 131.873475L147.888000 131.085675L148.780800 128.471663
L149.673600 130.473113L150.566400 129.676163L151.459200 128.634713
L152.352000 131.329238L153.244800 127.452638L154.137600 126.321563
L155.030400 130.289363L155.923200 126.420788L156.816000 127.820250
L157.708800 125.150138L158.601600 122.433563L159.494400 124.614863
L160.387200 124.776488L161.280000 184.153650L162.172800 182.822438
L163.065600 182.517225L163.958400 179.958938L164.851200 179.303400
L165.744000 177.754650L166.636800 175.074375L167.529600 176.406750
L168.422400 171.769575L169.315200 174.938100L170.208000 173.142563
L171.100800 173.285438L171.993600 171.985388L172.886400 171.860138
L173.779200 171.321038L174.672000 168.782925L175.564800 166.386675
L176.457600 165.148425L177.350400 164.646563L178.243200 164.429513
L179.136000 163.252500L180.028800 164.649000L180.921600 159.715650
L181.814400 161.418263L182.707200 158.389763L183.600000 154.606725
L184.492800 156.033375L185.385600 157.355363L186.278400 156.660675
L187.171200 152.978925L188.064000 141.621488L188.956800 141.833700
L189.849600 141.531788L190.742400 141.564825L191.635200 141.982088
L192.528000 142.472363L193.420800 139.185413L194.313600 141.224663
L195.206400 138.058500L196.099200 139.703963L196.992000 138.499275
L197.884800 139.504238L198.777600 140.428463L199.670400 140.130900
L200.563200 137.790038L201.456000 137.488163L202.348800 135.494250
L203.241600 138.812250L204.134400 135.970950L205.027200 136.009013
L205.920000 138.214425L206.812800 136.969463L207.705600 135.879638
L208.598400 135.379050L209.491200 137.865900L210.384000 136.420163
L211.276800 134.015925L212.169600 135.203888L213.062400 133.341150
L213.955200 130.105163L214.848000 85.058063L215.740800 83.550225
L216.633600 81.451388L217.526400 81.143213L218.419200 81.997425
L219.312000 84.973200L220.204800 83.248425L221.097600 83.189925
L221.990400 85.180275L222.883200 83.648550L223.776000 84.309938
L224.668800 83.424188L225.561600 84.496613L226.454400 84.240375
L227.347200 84.345675L228.240000 83.282813L229.132800 86.420475
L230.025600 83.047613L230.918400 83.139488L231.811200 82.920263
L232.704000 83.632838L233.596800 84.801150L234.489600 81.736763
L235.382400 81.204713L236.275200 85.234463L237.168000 83.079225
L238.060800 83.096625L238.953600 83.622713L239.846400 83.349638
L240.739200 85.417688L241.632000 82.978613L242.524800 86.445563
L243.417600 82.644863L244.310400 83.232450L245.203200 82.411763
L246.096000 83.921850L246.988800 82.035675L247.881600 83.161425
L248.774400 82.106925L249.667200 82.075088L250.560000 84.051413
L251.452800 84.900600L252.345600 83.601975L253.238400 86.004450
L254.131200 84.024113L255.024000 83.948550L255.916800 83.457188
L256.809600 84.695100L257.702400 82.204763L258.595200 87.490313
L259.488000 82.800488L260.380800 84.291488L261.273600 85.256775
L262.166400 83.954813L263.059200 84.008663L263.952000 84.470738
L264.844800 84.426225L265.737600 85.044713L266.630400 83.977350
L267.523200 85.998750L268.416000 160.901400L269.308800 158.895938
L270.201600 156.379313L271.094400 155.713913L271.987200 154.244138
L272.880000 148.472550L273.772800 152.631525L274.665600 150.179700
L275.558400 145.211925L276.451200 139.504425L277.344000 132.481350
L278.236800 135.036038L279.129600 133.246313L280.022400 132.307838
L280.915200 130.819163L281.808000 129.461138L282.700800 129.529388
L283.593600 133.133813L284.486400 129.034838L285.379200 132.237600
L286.272000 130.698413L287.164800 130.084650L288.057600 128.602913
L288.950400 128.161275L289.843200 130.440675L290.736000 127.136850
L291.628800 126.658125L292.521600 127.851788L293.414400 125.380500
L294.307200 127.203263L295.200000 81.767588L296.092800 83.379975
L296.985600 83.634113L297.878400 84.742838L298.771200 82.787850
L299.664000 82.184775L300.556800 84.638550L301.449600 85.568138
L302.342400 82.854675L303.235200 81.306188L304.128000 84.539025
L305.020800 84.534413L305.913600 82.894763L306.806400 82.914863
L307.699200 82.619025L308.592000 81.921188L309.484800 82.432800
L310.377600 81.961763L311.270400 85.925813L312.163200 82.143600
L313.056000 82.767113L313.948800 84.370163L314.841600 83.181375
L315.734400 82.825688L316.627200 83.363325L317.520000 83.279475
L318.412800 83.641650L319.305600 84.710888L320.198400 82.998525
L321.091200 83.667375L321.984000 83.166900L322.876800 84.893025
L323.769600 84.113250L324.662400 82.665375L325.555200 83.924475
L326.448000 83.975775L327.340800 83.650875L328.233600 84.944513
L329.126400 85.370625L330.019200 83.655150L330.912000 86.401763
L331.804800 83.568375L332.697600 83.210813L333.590400 83.832863
L334.483200 81.972525L335.376000 82.972950L336.268800 83.591363
L337.161600 83.270175L338.054400 81.809175L338.947200 82.736963
L339.840000 82.363650L340.732800 82.723500L341.625600 81.732488
L342.518400 85.885200L343.411200 82.908863L344.304000 82.524938
L345.196800 84.840600L346.089600 84.971025L346.982400 86.185275
L347.875200 82.325663L348.768000 84.186750L349.660800 83.524013
L350.553600 83.470500L351.446400 83.019300L352.339200 83.202188
L353.232000 82.920638L354.124800 82.814438L355.017600 84.095063
L355.910400 81.018563L356.803200 84.583163L357.696000 83.012363
L358.588800 84.969638L359.481600 85.577138L360.374400 83.560650
L361.267200 84.557513L362.160000 82.686450L363.052800 83.406225
L363.945600 82.744125L364.838400 83.903963L365.731200 84.952275
L366.624000 82.658625L367.516800 81.659663L368.409600 82.482000
L369.302400 82.855238L370.195200 86.606100L371.088000 84.591150
L371.980800 83.188425L372.873600 81.764363L373.766400 83.996025
L374.659200 86.479538L375.552000 83.013638L376.444800 84.004650
L377.337600 84.023925L378.230400 83.182013L379.123200 85.362938
L380.016000 84.787125L380.908800 85.121888L381.801600 83.997225
L382.694400 81.192863L383.587200 82.323563L384.480000 81.433725
L385.372800 82.551975L386.265600 84.477188L387.158400 84.021300
L388.051200 84.308888L388.944000 84.075750L389.836800 83.907525
L390.729600 81.431025L391.622400 86.278763L392.515200 84.974138
L393.408000 81.022013L394.300800 83.821688L395.193600 81.903525
L396.086400 82.117275L396.979200 79.898775L397.872000 83.075625
L398.764800 81.357863L399.657600 85.102838L400.550400 87.932213
L401.443200 84.796725L402.336000 85.797750L403.228800 85.300725
L404.121600 83.870625L405.014400 84.911588L405.907200 83.856263
L406.800000 82.065938L407.692800 83.241638L408.585600 81.653475
L409.478400 82.468050L410.371200 82.420950L411.264000 82.994063
L412.156800 83.141288L413.049600 82.000875L413.942400 83.366588
L414.835200 84.419625L415.728000 84.340463L416.620800 84.490500
L417.513600 83.063700L418.406400 82.463400L419.299200 85.167525
L420.192000 82.702238L421.084800 84.188963L421.977600 84.065400
L422.870400 84.570750L423.763200 83.175563L424.656000 83.281050
L425.548800 85.548938L426.441600 83.097750L427.334400 82.686188
L428.227200 82.517813L429.120000 82.950750L430.012800 85.284450
L430.905600 81.144900L431.798400 82.884338L432.691200 83.132363
L433.584000 82.853888L434.476800 86.769225L435.369600 84.313800
L436.262400 82.920863L437.155200 83.088525L438.048000 85.759800
L438.940800 83.177925L439.833600 82.490063L440.726400 83.895750
L441.619200 85.732725L442.512000 83.936400L443.404800 83.374200
L444.297600 82.461788L445.190400 84.012713L446.083200 85.563488
L446.976000 84.987300L447.868800 85.041713L448.761600 82.745738
L449.654400 84.116138L450.547200 83.200763L451.440000 85.496588
L452.332800 85.557563L453.225600 83.203650L454.118400 84.901800
L455.011200 83.520713L455.904000 83.274263L456.796800 84.343013
L457.689600 82.325363L458.582400 82.300500L459.475200 83.407875
L460.368000 86.212500L461.260800 81.640238L462.153600 85.087313
L463.046400 84.459675L463.939200 81.773100L464.832000 83.177813
L465.724800 83.088975L466.617600 84.935063L467.510400 84.846450
L468.403200 83.541263L469.296000 85.310400L470.188800 82.379400
L471.081600 84.837413L471.974400 82.959938L472.867200 84.679313
L473.760000 82.910513L474.652800 82.992113L475.545600 84.977513
L476.438400 81.769763L477.331200 81.956738L478.224000 85.622213
L479.116800 84.090975L480.009600 83.408775L480.902400 86.286863
L481.795200 86.874825L482.688000 85.924613L483.580800 84.046763
L484.473600 83.602238L485.366400 84.804600L486.259200 82.226888
L487.152000 85.151213L488.044800 82.733850L488.937600 81.330788
L489.830400 82.787513L490.723200 83.139788L491.616000 82.284300"/>
</g>
<g id="line2d4">
<path style="fill: none; stroke: #00bfbf; stroke-width: 1.000000; stroke-linejoin: miter; stroke-linecap: square;  opacity: 1.000000" clip-path="url(#p50431ccdcb28178602d99d9270004dde)" d="M72.000000 319.694438L72.892800 300.254663L73.785600 288.338438
L74.678400 266.982956L75.571200 268.023356L76.464000 276.119700
L77.356800 260.212763L78.249600 256.985869L79.142400 256.750688
L80.035200 253.920188L80.928000 251.358000L81.820800 247.567481
L82.713600 240.352969L83.606400 250.947769L84.499200 248.480194
L85.392000 240.557156L86.284800 234.007069L87.177600 236.658806
L88.070400 233.247694L88.963200 238.719863L89.856000 231.380081
L90.748800 231.869175L91.641600 223.786444L92.534400 226.515019
L93.427200 223.019419L94.320000 220.709400L95.212800 218.808488
L96.105600 223.596206L96.998400 215.119725L97.891200 211.967081
L98.784000 212.183138L99.676800 208.573238L100.569600 215.414981
L101.462400 216.386644L102.355200 207.897394L103.248000 201.440147
L104.140800 209.948438L105.033600 207.726000L105.926400 206.693756
L106.819200 198.733031L107.712000 199.381734L108.604800 204.502734
L109.497600 193.864228L110.390400 198.271388L111.283200 197.398894
L112.176000 206.815538L113.068800 202.562363L113.961600 189.443822
L114.854400 193.698488L115.747200 197.234194L116.640000 182.465363
L117.532800 189.800138L118.425600 191.268628L119.318400 180.937725
L120.211200 183.348038L121.104000 183.704747L121.996800 181.167647
L122.889600 181.834941L123.782400 181.056666L124.675200 179.971069
L125.568000 174.829256L126.460800 174.761447L127.353600 177.917606
L128.246400 175.786266L129.139200 170.296969L130.032000 154.590506
L130.924800 151.667363L131.817600 159.561319L132.710400 152.066344
L133.603200 159.865659L134.496000 153.912356L135.388800 154.861772
L136.281600 159.493059L137.174400 156.588872L138.067200 156.804956
L138.960000 157.803366L139.852800 154.154203L140.745600 154.222294
L141.638400 156.906459L142.531200 150.821363L143.424000 149.939503
L144.316800 149.750981L145.209600 149.091450L146.102400 148.561434
L146.995200 149.975531L147.888000 144.714131L148.780800 147.394556
L149.673600 150.902841L150.566400 151.771847L151.459200 147.630300
L152.352000 146.264775L153.244800 142.277944L154.137600 145.276294
L155.030400 153.417863L155.923200 145.169700L156.816000 147.306469
L157.708800 146.119594L158.601600 138.384094L159.494400 139.730606
L160.387200 149.564063L161.280000 145.390763L162.172800 141.220106
L163.065600 144.178322L163.958400 142.920741L164.851200 147.171384
L165.744000 139.171622L166.636800 135.181191L167.529600 142.364456
L168.422400 136.872234L169.315200 139.888922L170.208000 136.456406
L171.100800 142.739503L171.993600 139.304991L172.886400 134.920359
L173.779200 137.158828L174.672000 136.060069L175.564800 133.225800
L176.457600 133.792238L177.350400 138.370509L178.243200 126.553650
L179.136000 130.396313L180.028800 132.529847L180.921600 132.482288
L181.814400 134.376619L182.707200 124.091391L183.600000 122.164125
L184.492800 130.508081L185.385600 125.726044L186.278400 129.583725
L187.171200 116.914931L188.064000 121.655119L188.956800 120.103406
L189.849600 118.006828L190.742400 109.847231L191.635200 112.143919
L192.528000 113.857716L193.420800 102.078741L194.313600 105.654553
L195.206400 110.617041L196.099200 108.753366L196.992000 105.653034
L197.884800 108.071981L198.777600 105.472134L199.670400 109.523597
L200.563200 105.472022L201.456000 102.945244L202.348800 98.769103
L203.241600 107.575997L204.134400 97.085738L205.027200 105.266541
L205.920000 104.512678L206.812800 108.257353L207.705600 95.351859
L208.598400 105.144928L209.491200 109.438294L210.384000 103.536263
L211.276800 107.057484L212.169600 107.371416L213.062400 108.894159
L213.955200 98.715441L214.848000 156.437222L215.740800 154.593319
L216.633600 148.863497L217.526400 158.249147L218.419200 153.272513
L219.312000 152.109263L220.204800 152.343263L221.097600 154.407159
L221.990400 152.815313L222.883200 156.811847L223.776000 154.583672
L224.668800 150.746044L225.561600 149.410050L226.454400 150.309938
L227.347200 150.477197L228.240000 148.012659L229.132800 151.314000
L230.025600 147.699459L230.918400 145.486528L231.811200 143.851875
L232.704000 140.582709L233.596800 142.975781L234.489600 142.488178
L235.382400 139.984350L236.275200 144.138469L237.168000 139.791047
L238.060800 139.744134L238.953600 147.617109L239.846400 138.535434
L240.739200 143.273428L241.632000 144.619519L242.524800 141.107859
L243.417600 142.020206L244.310400 138.131503L245.203200 134.500031
L246.096000 137.300747L246.988800 137.196966L247.881600 132.115481
L248.774400 137.659172L249.667200 133.887834L250.560000 135.174806
L251.452800 136.742691L252.345600 135.777075L253.238400 134.785388
L254.131200 136.135584L255.024000 124.754156L255.916800 120.455672
L256.809600 128.681025L257.702400 124.099631L258.595200 130.446797
L259.488000 125.065022L260.380800 120.610134L261.273600 126.947091
L262.166400 122.475553L263.059200 119.384644L263.952000 122.432241
L264.844800 121.676325L265.737600 115.312650L266.630400 112.373306
L267.523200 112.072509L268.416000 107.303888L269.308800 101.938116
L270.201600 109.058691L271.094400 102.373491L271.987200 102.426394
L272.880000 99.446550L273.772800 112.145184L274.665600 109.412138
L275.558400 104.667759L276.451200 100.548150L277.344000 106.177566
L278.236800 103.491825L279.129600 104.189606L280.022400 106.225125
L280.915200 104.829113L281.808000 105.692156L282.700800 105.006694
L283.593600 105.044381L284.486400 106.499034L285.379200 103.522256
L286.272000 104.257528L287.164800 107.598525L288.057600 103.217606
L288.950400 103.285191L289.843200 103.783200L290.736000 106.044984
L291.628800 104.084306L292.521600 108.632738L293.414400 101.772066
L294.307200 105.315844L295.200000 141.839166L296.092800 154.801922
L296.985600 144.752128L297.878400 147.069347L298.771200 148.667325
L299.664000 146.784666L300.556800 147.532875L301.449600 151.323844
L302.342400 140.969709L303.235200 151.607400L304.128000 147.748284
L305.020800 147.481913L305.913600 141.371363L306.806400 145.863234
L307.699200 139.384528L308.592000 143.911303L309.484800 142.636059
L310.377600 138.799247L311.270400 138.026034L312.163200 132.919266
L313.056000 133.436513L313.948800 133.660866L314.841600 133.281966
L315.734400 137.811300L316.627200 138.235341L317.520000 139.075800
L318.412800 132.734738L319.305600 136.994466L320.198400 111.614578
L321.091200 105.676659L321.984000 101.282072L322.876800 105.592256
L323.769600 103.021547L324.662400 104.709581L325.555200 105.191278
L326.448000 107.536538L327.340800 108.014578L328.233600 108.421519
L329.126400 110.139225L330.019200 101.185603L330.912000 112.880850
L331.804800 101.766863L332.697600 102.223809L333.590400 110.368472
L334.483200 109.168631L335.376000 106.092713L336.268800 105.946069
L337.161600 111.053372L338.054400 103.046719L338.947200 103.244719
L339.840000 102.968644L340.732800 105.582469L341.625600 102.078741
L342.518400 109.817784L343.411200 100.473563L344.304000 109.701600
L345.196800 106.019700L346.089600 106.347694L346.982400 103.940756
L347.875200 107.872238L348.768000 108.637941L349.660800 107.969325
L350.553600 104.491556L351.446400 111.110972L352.339200 105.238613
L353.232000 104.546738L354.124800 103.582275L355.017600 97.711547
L355.910400 102.109284L356.803200 102.217003L357.696000 105.123553
L358.588800 105.587053L359.481600 105.314634L360.374400 103.202109
L361.267200 110.154750L362.160000 106.381697L363.052800 101.802806
L363.945600 99.617719L364.838400 100.059141L365.731200 103.503244
L366.624000 106.273725L367.516800 105.234309L368.409600 105.295791
L369.302400 111.426675L370.195200 109.840313L371.088000 102.990806
L371.980800 106.486884L372.873600 101.378147L373.766400 98.204156
L374.659200 103.824966L375.552000 101.714438L376.444800 104.212275
L377.337600 104.095669L378.230400 110.846991L379.123200 107.106028
L380.016000 102.146550L380.908800 101.481225L381.801600 110.088206
L382.694400 100.746094L383.587200 105.767784L384.480000 106.805963
L385.372800 104.306381L386.265600 102.017934L387.158400 101.825925
L388.051200 105.722953L388.944000 104.749631L389.836800 104.483766
L390.729600 100.061981L391.622400 103.679531L392.515200 110.749425
L393.408000 104.527191L394.300800 101.076028L395.193600 98.568881
L396.086400 99.720263L396.979200 97.945013L397.872000 97.576125
L398.764800 99.752213L399.657600 108.258141L400.550400 108.982922
L401.443200 103.762584L402.336000 105.538509L403.228800 103.413863
L404.121600 102.187781L405.014400 110.610038L405.907200 101.624325
L406.800000 102.067069L407.692800 105.839166L408.585600 102.987909
L409.478400 106.056966L410.371200 102.332794L411.264000 100.156763
L412.156800 103.134525L413.049600 106.427934L413.942400 102.091088
L414.835200 104.978569L415.728000 109.519884L416.620800 109.981388
L417.513600 106.568672L418.406400 105.109631L419.299200 108.463791
L420.192000 108.390919L421.084800 105.657197L421.977600 101.514497
L422.870400 109.599591L423.763200 103.234425L424.656000 106.111219
L425.548800 102.224625L426.441600 101.118300L427.334400 103.055494
L428.227200 101.743997L429.120000 100.483153L430.012800 106.228978
L430.905600 103.083028L431.798400 99.835238L432.691200 102.665906
L433.584000 101.500631L434.476800 111.267009L435.369600 104.267878
L436.262400 111.972300L437.155200 100.885256L438.048000 107.983022
L438.940800 106.673044L439.833600 105.334547L440.726400 102.288975
L441.619200 102.919509L442.512000 109.474688L443.404800 111.867844
L444.297600 105.908972L445.190400 108.374409L446.083200 106.947459
L446.976000 107.725256L447.868800 106.910953L448.761600 106.266413
L449.654400 111.838425L450.547200 101.419491L451.440000 105.275878
L452.332800 103.889653L453.225600 108.214941L454.118400 110.297203
L455.011200 106.615191L455.904000 101.156578L456.796800 100.963472
L457.689600 104.947547L458.582400 100.692150L459.475200 108.797803
L460.368000 112.030266L461.260800 98.756588L462.153600 103.523044
L463.046400 98.507034L463.939200 111.033994L464.832000 105.036422
L465.724800 107.311284L466.617600 106.297378L467.510400 105.351759
L468.403200 100.454719L469.296000 106.748222L470.188800 101.065763
L471.081600 101.839313L471.974400 107.456775L472.867200 108.333516
L473.760000 106.326628L474.652800 101.181863L475.545600 111.105319
L476.438400 109.285997L477.331200 104.089425L478.224000 109.628278
L479.116800 108.832650L480.009600 115.029713L480.902400 107.346694
L481.795200 109.119328L482.688000 109.220072L483.580800 107.901741
L484.473600 105.526584L485.366400 105.938334L486.259200 103.534322
L487.152000 108.378178L488.044800 101.887238L488.937600 104.864438
L489.830400 104.507841L490.723200 105.124959L491.616000 103.810566"/>
</g>
<g id="line2d5">
<path style="fill: none; stroke: #bf00bf; stroke-width: 1.000000; stroke-linejoin: miter; stroke-linecap: square;  opacity: 1.000000" clip-path="url(#p50431ccdcb28178602d99d9270004dde)" d="M72.000000 382.682625L72.892800 360.112613L73.785600 361.635563
L74.678400 334.629750L75.571200 328.166625L76.464000 324.296588
L77.356800 315.728925L78.249600 339.963075L79.142400 339.674025
L80.035200 321.364013L80.928000 314.465438L81.820800 323.406675
L82.713600 315.085650L83.606400 337.703925L84.499200 315.870000
L85.392000 306.763913L86.284800 306.684675L87.177600 321.583463
L88.070400 318.562275L88.963200 311.910563L89.856000 315.900638
L90.748800 307.619925L91.641600 300.953138L92.534400 306.582038
L93.427200 299.815988L94.320000 300.507000L95.212800 295.810313
L96.105600 300.882450L96.998400 302.095913L97.891200 291.600675
L98.784000 285.633713L99.676800 287.465138L100.569600 278.517000
L101.462400 284.269463L102.355200 268.402163L103.248000 270.107325
L104.140800 278.329725L105.033600 280.934025L105.926400 270.249563
L106.819200 260.885288L107.712000 277.573763L108.604800 264.015675
L109.497600 250.803263L110.390400 263.092500L111.283200 255.581775
L112.176000 262.614113L113.068800 257.409900L113.961600 250.031400
L114.854400 255.665175L115.747200 264.058200L116.640000 234.609488
L117.532800 246.853650L118.425600 250.554413L119.318400 236.729700
L120.211200 239.164875L121.104000 243.853200L121.996800 240.820500
L122.889600 240.228638L123.782400 257.929163L124.675200 252.697088
L125.568000 227.394600L126.460800 236.147513L127.353600 246.349725
L128.246400 240.954938L129.139200 245.558100L130.032000 231.556688
L130.924800 226.111500L131.817600 239.155763L132.710400 232.901213
L133.603200 224.988675L134.496000 207.333863L135.388800 204.456413
L136.281600 225.868950L137.174400 217.224450L138.067200 214.602375
L138.960000 215.824238L139.852800 223.789013L140.745600 222.662850
L141.638400 207.099938L142.531200 217.005713L143.424000 217.019738
L144.316800 210.851813L145.209600 197.389688L146.102400 206.605200
L146.995200 208.676625L147.888000 204.949650L148.780800 213.860325
L149.673600 217.767675L150.566400 218.842013L151.459200 207.214388
L152.352000 211.128675L153.244800 200.113350L154.137600 205.385438
L155.030400 209.937750L155.923200 215.235225L156.816000 211.638413
L157.708800 209.932500L158.601600 198.868950L159.494400 186.881288
L160.387200 215.733038L161.280000 199.089038L162.172800 206.695238
L163.065600 212.082188L163.958400 199.827600L164.851200 207.452700
L165.744000 196.865363L166.636800 191.271000L167.529600 200.000400
L168.422400 196.351875L169.315200 200.617500L170.208000 198.206475
L171.100800 207.195713L171.993600 201.592088L172.886400 214.703250
L173.779200 205.410150L174.672000 196.142550L175.564800 193.604475
L176.457600 196.762350L177.350400 193.035000L178.243200 211.362263
L179.136000 182.285888L180.028800 189.542438L180.921600 189.281325
L181.814400 192.174113L182.707200 197.714963L183.600000 179.136600
L184.492800 187.572638L185.385600 186.945188L186.278400 187.451138
L187.171200 186.085163L188.064000 194.975513L188.956800 178.304213
L189.849600 180.319650L190.742400 171.825113L191.635200 174.176250
L192.528000 183.767738L193.420800 172.562325L194.313600 186.919575
L195.206400 179.888550L196.099200 182.650088L196.992000 171.114938
L197.884800 178.105163L198.777600 163.206225L199.670400 162.392813
L200.563200 162.126263L201.456000 163.331063L202.348800 151.298325
L203.241600 161.211863L204.134400 155.329688L205.027200 159.750188
L205.920000 161.967000L206.812800 173.782725L207.705600 169.954200
L208.598400 158.229900L209.491200 171.362850L210.384000 155.541638
L211.276800 161.132025L212.169600 163.941525L213.062400 157.749600
L213.955200 164.681175L214.848000 161.608763L215.740800 155.211525
L216.633600 171.107175L217.526400 166.839750L218.419200 158.716875
L219.312000 154.906463L220.204800 163.696125L221.097600 160.744725
L221.990400 180.755363L222.883200 164.635313L223.776000 160.014075
L224.668800 150.793988L225.561600 162.971250L226.454400 158.094450
L227.347200 176.797838L228.240000 156.323625L229.132800 169.749750
L230.025600 170.205075L230.918400 152.503575L231.811200 158.610150
L232.704000 166.064213L233.596800 160.652663L234.489600 154.626938
L235.382400 163.890750L236.275200 158.846963L237.168000 160.239338
L238.060800 166.898325L238.953600 162.164775L239.846400 155.496450
L240.739200 166.058100L241.632000 173.816850L242.524800 166.906763
L243.417600 171.940275L244.310400 164.679075L245.203200 175.704225
L246.096000 153.944925L246.988800 169.211550L247.881600 165.218813
L248.774400 167.824650L249.667200 168.480825L250.560000 163.417463
L251.452800 163.651650L252.345600 175.315388L253.238400 163.721063
L254.131200 171.548400L255.024000 154.750950L255.916800 155.746875
L256.809600 159.429638L257.702400 160.558238L258.595200 170.612850
L259.488000 175.085625L260.380800 177.691763L261.273600 157.260038
L262.166400 164.872275L263.059200 167.058150L263.952000 167.672400
L264.844800 156.757538L265.737600 175.986563L266.630400 163.778663
L267.523200 153.431063L268.416000 161.179800L269.308800 167.807925
L270.201600 157.375200L271.094400 166.365525L271.987200 167.632275
L272.880000 159.723000L273.772800 160.140188L274.665600 178.473225
L275.558400 161.241900L276.451200 149.875125L277.344000 159.996375
L278.236800 166.405725L279.129600 160.166213L280.022400 159.312713
L280.915200 167.257650L281.808000 166.077600L282.700800 172.687913
L283.593600 167.128275L284.486400 162.540113L285.379200 161.381025
L286.272000 168.242288L287.164800 170.460150L288.057600 163.377338
L288.950400 151.410938L289.843200 171.248288L290.736000 166.081725
L291.628800 164.588325L292.521600 154.406625L293.414400 161.842688
L294.307200 164.656913L295.200000 151.333313L296.092800 169.010288
L296.985600 164.146725L297.878400 162.288413L298.771200 159.191550
L299.664000 163.842188L300.556800 167.118563L301.449600 159.393375
L302.342400 167.670675L303.235200 158.834588L304.128000 158.740875
L305.020800 173.261213L305.913600 169.616700L306.806400 165.087600
L307.699200 167.955788L308.592000 161.408925L309.484800 155.993925
L310.377600 160.639875L311.270400 160.980188L312.163200 158.414775
L313.056000 149.826638L313.948800 159.063000L314.841600 175.471200
L315.734400 159.657675L316.627200 171.140138L317.520000 161.361375
L318.412800 160.427063L319.305600 162.216975L320.198400 156.600825
L321.091200 157.608375L321.984000 155.033025L322.876800 154.993688
L323.769600 155.640225L324.662400 166.786275L325.555200 160.590150
L326.448000 159.461138L327.340800 168.803100L328.233600 165.014325
L329.126400 159.121238L330.019200 162.022800L330.912000 168.966450
L331.804800 156.416250L332.697600 165.972863L333.590400 174.571800
L334.483200 163.370175L335.376000 153.132075L336.268800 161.922450
L337.161600 171.193013L338.054400 159.417563L338.947200 157.333238
L339.840000 168.566813L340.732800 159.084713L341.625600 163.679850
L342.518400 164.258100L343.411200 155.148638L344.304000 171.658988
L345.196800 163.953713L346.089600 164.474850L346.982400 158.651288
L347.875200 155.979263L348.768000 158.244450L349.660800 176.978700
L350.553600 162.890025L351.446400 169.081988L352.339200 160.713150
L353.232000 161.035538L354.124800 157.255875L355.017600 148.565813
L355.910400 164.956425L356.803200 172.304475L357.696000 163.827750
L358.588800 157.999125L359.481600 169.407938L360.374400 149.567363
L361.267200 164.530050L362.160000 176.022113L363.052800 152.265488
L363.945600 167.580675L364.838400 163.015388L365.731200 168.562088
L366.624000 160.189538L367.516800 150.267563L368.409600 149.764388
L369.302400 179.510550L370.195200 156.404063L371.088000 163.385888
L371.980800 159.884588L372.873600 166.058288L373.766400 159.547350
L374.659200 169.436063L375.552000 149.512050L376.444800 159.305850
L377.337600 163.892963L378.230400 169.862850L379.123200 159.723113
L380.016000 151.832363L380.908800 157.980675L381.801600 168.324300
L382.694400 171.551063L383.587200 170.812313L384.480000 160.350450
L385.372800 163.463213L386.265600 158.339663L387.158400 154.124963
L388.051200 176.035388L388.944000 156.921113L389.836800 172.547925
L390.729600 158.202188L391.622400 141.879900L392.515200 170.884688
L393.408000 152.955300L394.300800 150.313988L395.193600 160.181963
L396.086400 173.079300L396.979200 149.270288L397.872000 153.613013
L398.764800 150.804638L399.657600 152.553038L400.550400 167.215013
L401.443200 172.416638L402.336000 164.497200L403.228800 161.913225
L404.121600 163.199288L405.014400 163.070813L405.907200 168.183263
L406.800000 153.296250L407.692800 159.416813L408.585600 155.635613
L409.478400 163.524938L410.371200 157.781850L411.264000 154.397438
L412.156800 153.219113L413.049600 167.053913L413.942400 156.910388
L414.835200 167.833463L415.728000 177.111038L416.620800 159.696825
L417.513600 173.931788L418.406400 164.019188L419.299200 161.517488
L420.192000 177.270000L421.084800 177.215550L421.977600 153.132300
L422.870400 161.107388L423.763200 168.103425L424.656000 163.116675
L425.548800 169.342463L426.441600 169.116825L427.334400 165.363638
L428.227200 162.138938L429.120000 157.444688L430.012800 170.254725
L430.905600 153.476925L431.798400 166.456613L432.691200 161.701800
L433.584000 153.737475L434.476800 165.384000L435.369600 163.132913
L436.262400 161.148975L437.155200 150.616688L438.048000 162.609863
L438.940800 159.647850L439.833600 163.368000L440.726400 153.483300
L441.619200 159.065100L442.512000 168.373725L443.404800 175.640850
L444.297600 162.657600L445.190400 164.044575L446.083200 163.627725
L446.976000 159.203663L447.868800 163.148063L448.761600 152.744213
L449.654400 168.895800L450.547200 165.880500L451.440000 154.444650
L452.332800 165.124913L453.225600 164.017388L454.118400 160.756275
L455.011200 157.707863L455.904000 167.134875L456.796800 155.756775
L457.689600 161.520413L458.582400 159.215738L459.475200 160.765613
L460.368000 166.181550L461.260800 160.650375L462.153600 171.058725
L463.046400 147.276750L463.939200 163.891200L464.832000 163.776225
L465.724800 170.359163L466.617600 161.943038L467.510400 156.868575
L468.403200 161.023163L469.296000 163.573425L470.188800 166.337775
L471.081600 161.673300L471.974400 160.250063L472.867200 166.146563
L473.760000 161.311313L474.652800 163.828988L475.545600 163.092300
L476.438400 167.028825L477.331200 166.557300L478.224000 163.481475
L479.116800 165.984413L480.009600 170.250863L480.902400 165.616913
L481.795200 171.371363L482.688000 168.224513L483.580800 159.554325
L484.473600 160.770188L485.366400 172.919400L486.259200 166.624875
L487.152000 163.206638L488.044800 157.902863L488.937600 162.732150
L489.830400 168.611325L490.723200 154.585838L491.616000 169.646775"/>
</g>
<g id="matplotlib.axis1">
<g id="xtick1">
<g id="line2d6">
<defs><path id="m30e32995789d870ad79a2e54c91cf9c6" d="M0.000000 0.000000L0.000000 -4.000000"/></defs>
<g ><use style="fill: none; stroke: #000000; stroke-width: 0.500000; stroke-linejoin: miter; stroke-linecap: butt;  opacity: 1.000000" xlink:href="#m30e32995789d870ad79a2e54c91cf9c6" x="72.000000" y="388.800000"/>
</g></g>
<g id="line2d7">
<defs><path id="m9281cae24120827b11d5ea8a7ad3e96b" d="M0.000000 0.000000L0.000000 4.000000"/></defs>
<g ><use style="fill: none; stroke: #000000; stroke-width: 0.500000; stroke-linejoin: miter; stroke-linecap: butt;  opacity: 1.000000" xlink:href="#m9281cae24120827b11d5ea8a7ad3e96b" x="72.000000" y="43.200000"/>
</g></g>
<defs>
<path id="c_7a2040fe3b94fcd41d0a72c84e93b115" d="M31.781250 -66.406250q-7.609375 0.000000 -11.453125 7.500000q-3.828125 7.484375 -3.828125 22.531250q0.000000 14.984375 3.828125 22.484375q3.843750 7.500000 11.453125 7.500000q7.671875 0.000000 11.500000 -7.500000q3.843750 -7.500000 3.843750 -22.484375q0.000000 -15.046875 -3.843750 -22.531250q-3.828125 -7.500000 -11.500000 -7.500000M31.781250 -74.218750q12.265625 0.000000 18.734375 9.703125q6.468750 9.687500 6.468750 28.140625q0.000000 18.406250 -6.468750 28.109375q-6.468750 9.687500 -18.734375 9.687500q-12.250000 0.000000 -18.718750 -9.687500q-6.468750 -9.703125 -6.468750 -28.109375q0.000000 -18.453125 6.468750 -28.140625q6.468750 -9.703125 18.718750 -9.703125"/>
</defs>
<g style="fill: #000000; opacity: 1.000000" transform="translate(68.976562,401.706250)scale(0.120000)">
<use xlink:href="#c_7a2040fe3b94fcd41d0a72c84e93b115"/>
</g>
</g>
<g id="xtick2">
<g id="line2d8">
<g ><use style="fill: none; stroke: #000000; stroke-width: 0.500000; stroke-linejoin: miter; stroke-linecap: butt;  opacity: 1.000000" xlink:href="#m30e32995789d870ad79a2e54c91cf9c6" x="161.280000" y="388.800000"/>
</g></g>
<g id="line2d9">
<g ><use style="fill: none; stroke: #000000; stroke-width: 0.500000; stroke-linejoin: miter; stroke-linecap: butt;  opacity: 1.000000" xlink:href="#m9281cae24120827b11d5ea8a7ad3e96b" x="161.280000" y="43.200000"/>
</g></g>
<defs>
<path id="c_42baa63129a918535c52adb20d687ea7" d="M12.406250 -8.296875l16.109375 0.000000l0.000000 -55.625000l-17.531250 3.515625l0.000000 -8.984375l17.437500 -3.515625l9.859375 0.000000l0.000000 64.609375l16.109375 0.000000l0.000000 8.296875l-41.984375 0.000000z"/>
</defs>
<g style="fill: #000000; opacity: 1.000000" transform="translate(150.873750,401.706250)scale(0.120000)">
<use xlink:href="#c_42baa63129a918535c52adb20d687ea7"/>
<use xlink:href="#c_7a2040fe3b94fcd41d0a72c84e93b115" x="63.623047"/>
<use xlink:href="#c_7a2040fe3b94fcd41d0a72c84e93b115" x="127.246094"/>
</g>
</g>
<g id="xtick3">
<g id="line2d10">
<g ><use style="fill: none; stroke: #000000; stroke-width: 0.500000; stroke-linejoin: miter; stroke-linecap: butt;  opacity: 1.000000" xlink:href="#m30e32995789d870ad79a2e54c91cf9c6" x="250.560000" y="388.800000"/>
</g></g>
<g id="line2d11">
<g ><use style="fill: none; stroke: #000000; stroke-width: 0.500000; stroke-linejoin: miter; stroke-linecap: butt;  opacity: 1.000000" xlink:href="#m9281cae24120827b11d5ea8a7ad3e96b" x="250.560000" y="43.200000"/>
</g></g>
<defs>
<path id="c_ed3f3ed3ebfbd18bcb9c012009a68ad1" d="M19.187500 -8.296875l34.421875 0.000000l0.000000 8.296875l-46.281250 0.000000l0.000000 -8.296875q5.609375 -5.812500 15.296875 -15.593750q9.703125 -9.796875 12.187500 -12.640625q4.734375 -5.312500 6.609375 -9.000000q1.890625 -3.687500 1.890625 -7.250000q0.000000 -5.812500 -4.078125 -9.468750q-4.078125 -3.671875 -10.625000 -3.671875q-4.640625 0.000000 -9.796875 1.609375q-5.140625 1.609375 -11.000000 4.890625l0.000000 -9.968750q5.953125 -2.390625 11.125000 -3.609375q5.187500 -1.218750 9.484375 -1.218750q11.328125 0.000000 18.062500 5.671875q6.734375 5.656250 6.734375 15.125000q0.000000 4.500000 -1.687500 8.531250q-1.671875 4.015625 -6.125000 9.484375q-1.218750 1.421875 -7.765625 8.187500q-6.531250 6.765625 -18.453125 18.921875"/>
</defs>
<g style="fill: #000000; opacity: 1.000000" transform="translate(239.935000,401.706250)scale(0.120000)">
<use xlink:href="#c_ed3f3ed3ebfbd18bcb9c012009a68ad1"/>
<use xlink:href="#c_7a2040fe3b94fcd41d0a72c84e93b115" x="63.623047"/>
<use xlink:href="#c_7a2040fe3b94fcd41d0a72c84e93b115" x="127.246094"/>
</g>
</g>
<g id="xtick4">
<g id="line2d12">
<g ><use style="fill: none; stroke: #000000; stroke-width: 0.500000; stroke-linejoin: miter; stroke-linecap: butt;  opacity: 1.000000" xlink:href="#m30e32995789d870ad79a2e54c91cf9c6" x="339.840000" y="388.800000"/>
</g></g>
<g id="line2d13">
<g ><use style="fill: none; stroke: #000000; stroke-width: 0.500000; stroke-linejoin: miter; stroke-linecap: butt;  opacity: 1.000000" xlink:href="#m9281cae24120827b11d5ea8a7ad3e96b" x="339.840000" y="43.200000"/>
</g></g>
<defs>
<path id="c_3dcfa38a02242cb63ec6726c6e70be7a" d="M40.578125 -39.312500q7.078125 1.515625 11.046875 6.312500q3.984375 4.781250 3.984375 11.812500q0.000000 10.781250 -7.421875 16.703125q-7.421875 5.906250 -21.093750 5.906250q-4.578125 0.000000 -9.437500 -0.906250q-4.859375 -0.906250 -10.031250 -2.718750l0.000000 -9.515625q4.093750 2.390625 8.968750 3.609375q4.890625 1.218750 10.218750 1.218750q9.265625 0.000000 14.125000 -3.656250q4.859375 -3.656250 4.859375 -10.640625q0.000000 -6.453125 -4.515625 -10.078125q-4.515625 -3.640625 -12.562500 -3.640625l-8.500000 0.000000l0.000000 -8.109375l8.890625 0.000000q7.265625 0.000000 11.125000 -2.906250q3.859375 -2.906250 3.859375 -8.375000q0.000000 -5.609375 -3.984375 -8.609375q-3.968750 -3.015625 -11.390625 -3.015625q-4.062500 0.000000 -8.703125 0.890625q-4.640625 0.875000 -10.203125 2.718750l0.000000 -8.781250q5.625000 -1.562500 10.531250 -2.343750q4.906250 -0.781250 9.250000 -0.781250q11.234375 0.000000 17.765625 5.109375q6.546875 5.093750 6.546875 13.781250q0.000000 6.062500 -3.468750 10.234375q-3.468750 4.171875 -9.859375 5.781250"/>
</defs>
<g style="fill: #000000; opacity: 1.000000" transform="translate(329.238437,401.706250)scale(0.120000)">
<use xlink:href="#c_3dcfa38a02242cb63ec6726c6e70be7a"/>
<use xlink:href="#c_7a2040fe3b94fcd41d0a72c84e93b115" x="63.623047"/>
<use xlink:href="#c_7a2040fe3b94fcd41d0a72c84e93b115" x="127.246094"/>
</g>
</g>
<g id="xtick5">
<g id="line2d14">
<g ><use style="fill: none; stroke: #000000; stroke-width: 0.500000; stroke-linejoin: miter; stroke-linecap: butt;  opacity: 1.000000" xlink:href="#m30e32995789d870ad79a2e54c91cf9c6" x="429.120000" y="388.800000"/>
</g></g>
<g id="line2d15">
<g ><use style="fill: none; stroke: #000000; stroke-width: 0.500000; stroke-linejoin: miter; stroke-linecap: butt;  opacity: 1.000000" xlink:href="#m9281cae24120827b11d5ea8a7ad3e96b" x="429.120000" y="43.200000"/>
</g></g>
<defs>
<path id="c_a0416418d96557a09b8c1332d34883ba" d="M37.796875 -64.312500l-24.906250 38.921875l24.906250 0.000000zM35.203125 -72.906250l12.406250 0.000000l0.000000 47.515625l10.406250 0.000000l0.000000 8.203125l-10.406250 0.000000l0.000000 17.187500l-9.812500 0.000000l0.000000 -17.187500l-32.906250 0.000000l0.000000 -9.515625z"/>
</defs>
<g style="fill: #000000; opacity: 1.000000" transform="translate(418.354375,401.706250)scale(0.120000)">
<use xlink:href="#c_a0416418d96557a09b8c1332d34883ba"/>
<use xlink:href="#c_7a2040fe3b94fcd41d0a72c84e93b115" x="63.623047"/>
<use xlink:href="#c_7a2040fe3b94fcd41d0a72c84e93b115" x="127.246094"/>
</g>
</g>
<g id="xtick6">
<g id="line2d16">
<g ><use style="fill: none; stroke: #000000; stroke-width: 0.500000; stroke-linejoin: miter; stroke-linecap: butt;  opacity: 1.000000" xlink:href="#m30e32995789d870ad79a2e54c91cf9c6" x="518.400000" y="388.800000"/>
</g></g>
<g id="line2d17">
<g ><use style="fill: none; stroke: #000000; stroke-width: 0.500000; stroke-linejoin: miter; stroke-linecap: butt;  opacity: 1.000000" xlink:href="#m9281cae24120827b11d5ea8a7ad3e96b" x="518.400000" y="43.200000"/>
</g></g>
<defs>
<path id="c_1260a2df50f305f3db244e29828f968e" d="M10.796875 -72.906250l38.718750 0.000000l0.000000 8.312500l-29.687500 0.000000l0.000000 17.859375q2.140625 -0.734375 4.281250 -1.093750q2.156250 -0.359375 4.312500 -0.359375q12.203125 0.000000 19.328125 6.687500q7.140625 6.687500 7.140625 18.109375q0.000000 11.765625 -7.328125 18.296875q-7.328125 6.515625 -20.656250 6.515625q-4.593750 0.000000 -9.359375 -0.781250q-4.750000 -0.781250 -9.828125 -2.343750l0.000000 -9.921875q4.390625 2.390625 9.078125 3.562500q4.687500 1.171875 9.906250 1.171875q8.453125 0.000000 13.375000 -4.437500q4.937500 -4.437500 4.937500 -12.062500q0.000000 -7.609375 -4.937500 -12.046875q-4.921875 -4.453125 -13.375000 -4.453125q-3.953125 0.000000 -7.890625 0.875000q-3.921875 0.875000 -8.015625 2.734375z"/>
</defs>
<g style="fill: #000000; opacity: 1.000000" transform="translate(507.798437,401.706250)scale(0.120000)">
<use xlink:href="#c_1260a2df50f305f3db244e29828f968e"/>
<use xlink:href="#c_7a2040fe3b94fcd41d0a72c84e93b115" x="63.623047"/>
<use xlink:href="#c_7a2040fe3b94fcd41d0a72c84e93b115" x="127.246094"/>
</g>
</g>
</g>
<g id="matplotlib.axis2">
<g id="ytick1">
<g id="line2d18">
<defs><path id="m3400efa6b1638b3fea9e19e898273957" d="M0.000000 0.000000L4.000000 0.000000"/></defs>
<g ><use style="fill: none; stroke: #000000; stroke-width: 0.500000; stroke-linejoin: miter; stroke-linecap: butt;  opacity: 1.000000" xlink:href="#m3400efa6b1638b3fea9e19e898273957" x="72.000000" y="388.800000"/>
</g></g>
<g id="line2d19">
<defs><path id="m20b58b2501143cb5e0a5e8f1ef6f1643" d="M0.000000 0.000000L-4.000000 0.000000"/></defs>
<g ><use style="fill: none; stroke: #000000; stroke-width: 0.500000; stroke-linejoin: miter; stroke-linecap: butt;  opacity: 1.000000" xlink:href="#m20b58b2501143cb5e0a5e8f1ef6f1643" x="518.400000" y="388.800000"/>
</g></g>
<defs>
<path id="c_6a8d56c819c37117ab4cf023bec22a5a" d="M10.593750 -35.500000l62.593750 0.000000l0.000000 8.296875l-62.593750 0.000000z"/>
<path id="c_bef35738d52871942e50b9de9b122bab" d="M31.781250 -34.625000q-7.031250 0.000000 -11.062500 3.765625q-4.015625 3.765625 -4.015625 10.343750q0.000000 6.593750 4.015625 10.359375q4.031250 3.765625 11.062500 3.765625q7.031250 0.000000 11.078125 -3.781250q4.062500 -3.796875 4.062500 -10.343750q0.000000 -6.578125 -4.031250 -10.343750q-4.015625 -3.765625 -11.109375 -3.765625M21.921875 -38.812500q-6.343750 -1.562500 -9.890625 -5.906250q-3.531250 -4.359375 -3.531250 -10.609375q0.000000 -8.734375 6.218750 -13.812500q6.234375 -5.078125 17.062500 -5.078125q10.890625 0.000000 17.093750 5.078125q6.203125 5.078125 6.203125 13.812500q0.000000 6.250000 -3.546875 10.609375q-3.531250 4.343750 -9.828125 5.906250q7.125000 1.656250 11.093750 6.500000q3.984375 4.828125 3.984375 11.796875q0.000000 10.609375 -6.468750 16.281250q-6.468750 5.656250 -18.531250 5.656250q-12.046875 0.000000 -18.531250 -5.656250q-6.468750 -5.671875 -6.468750 -16.281250q0.000000 -6.968750 4.000000 -11.796875q4.015625 -4.843750 11.140625 -6.500000M18.312500 -54.390625q0.000000 5.656250 3.531250 8.828125q3.546875 3.171875 9.937500 3.171875q6.359375 0.000000 9.937500 -3.171875q3.593750 -3.171875 3.593750 -8.828125q0.000000 -5.671875 -3.593750 -8.843750q-3.578125 -3.171875 -9.937500 -3.171875q-6.390625 0.000000 -9.937500 3.171875q-3.531250 3.171875 -3.531250 8.843750"/>
</defs>
<g style="fill: #000000; opacity: 1.000000" transform="translate(21.796875,393.167188)scale(0.120000)">
<use xlink:href="#c_6a8d56c819c37117ab4cf023bec22a5a"/>
<use xlink:href="#c_bef35738d52871942e50b9de9b122bab" x="83.789062"/>
<use xlink:href="#c_1260a2df50f305f3db244e29828f968e" x="147.412109"/>
<use xlink:href="#c_7a2040fe3b94fcd41d0a72c84e93b115" x="211.035156"/>
<use xlink:href="#c_7a2040fe3b94fcd41d0a72c84e93b115" x="274.658203"/>
<use xlink:href="#c_7a2040fe3b94fcd41d0a72c84e93b115" x="338.281250"/>
</g>
</g>
<g id="ytick2">
<g id="line2d20">
<g ><use style="fill: none; stroke: #000000; stroke-width: 0.500000; stroke-linejoin: miter; stroke-linecap: butt;  opacity: 1.000000" xlink:href="#m3400efa6b1638b3fea9e19e898273957" x="72.000000" y="350.400000"/>
</g></g>
<g id="line2d21">
<g ><use style="fill: none; stroke: #000000; stroke-width: 0.500000; stroke-linejoin: miter; stroke-linecap: butt;  opacity: 1.000000" xlink:href="#m20b58b2501143cb5e0a5e8f1ef6f1643" x="518.400000" y="350.400000"/>
</g></g>
<g style="fill: #000000; opacity: 1.000000" transform="translate(21.796875,354.767188)scale(0.120000)">
<use xlink:href="#c_6a8d56c819c37117ab4cf023bec22a5a"/>
<use xlink:href="#c_bef35738d52871942e50b9de9b122bab" x="83.789062"/>
<use xlink:href="#c_7a2040fe3b94fcd41d0a72c84e93b115" x="147.412109"/>
<use xlink:href="#c_7a2040fe3b94fcd41d0a72c84e93b115" x="211.035156"/>
<use xlink:href="#c_7a2040fe3b94fcd41d0a72c84e93b115" x="274.658203"/>
<use xlink:href="#c_7a2040fe3b94fcd41d0a72c84e93b115" x="338.281250"/>
</g>
</g>
<g id="ytick3">
<g id="line2d22">
<g ><use style="fill: none; stroke: #000000; stroke-width: 0.500000; stroke-linejoin: miter; stroke-linecap: butt;  opacity: 1.000000" xlink:href="#m3400efa6b1638b3fea9e19e898273957" x="72.000000" y="312.000000"/>
</g></g>
<g id="line2d23">
<g ><use style="fill: none; stroke: #000000; stroke-width: 0.500000; stroke-linejoin: miter; stroke-linecap: butt;  opacity: 1.000000" xlink:href="#m20b58b2501143cb5e0a5e8f1ef6f1643" x="518.400000" y="312.000000"/>
</g></g>
<defs>
<path id="c_956f18cfdaf972f35a6c2b4aaac2532b" d="M8.203125 -72.906250l46.875000 0.000000l0.000000 4.203125l-26.468750 68.703125l-10.296875 0.000000l24.906250 -64.593750l-35.015625 0.000000z"/>
</defs>
<g style="fill: #000000; opacity: 1.000000" transform="translate(21.796875,316.367188)scale(0.120000)">
<use xlink:href="#c_6a8d56c819c37117ab4cf023bec22a5a"/>
<use xlink:href="#c_956f18cfdaf972f35a6c2b4aaac2532b" x="83.789062"/>
<use xlink:href="#c_1260a2df50f305f3db244e29828f968e" x="147.412109"/>
<use xlink:href="#c_7a2040fe3b94fcd41d0a72c84e93b115" x="211.035156"/>
<use xlink:href="#c_7a2040fe3b94fcd41d0a72c84e93b115" x="274.658203"/>
<use xlink:href="#c_7a2040fe3b94fcd41d0a72c84e93b115" x="338.281250"/>
</g>
</g>
<g id="ytick4">
<g id="line2d24">
<g ><use style="fill: none; stroke: #000000; stroke-width: 0.500000; stroke-linejoin: miter; stroke-linecap: butt;  opacity: 1.000000" xlink:href="#m3400efa6b1638b3fea9e19e898273957" x="72.000000" y="273.600000"/>
</g></g>
<g id="line2d25">
<g ><use style="fill: none; stroke: #000000; stroke-width: 0.500000; stroke-linejoin: miter; stroke-linecap: butt;  opacity: 1.000000" xlink:href="#m20b58b2501143cb5e0a5e8f1ef6f1643" x="518.400000" y="273.600000"/>
</g></g>
<g style="fill: #000000; opacity: 1.000000" transform="translate(21.796875,277.967188)scale(0.120000)">
<use xlink:href="#c_6a8d56c819c37117ab4cf023bec22a5a"/>
<use xlink:href="#c_956f18cfdaf972f35a6c2b4aaac2532b" x="83.789062"/>
<use xlink:href="#c_7a2040fe3b94fcd41d0a72c84e93b115" x="147.412109"/>
<use xlink:href="#c_7a2040fe3b94fcd41d0a72c84e93b115" x="211.035156"/>
<use xlink:href="#c_7a2040fe3b94fcd41d0a72c84e93b115" x="274.658203"/>
<use xlink:href="#c_7a2040fe3b94fcd41d0a72c84e93b115" x="338.281250"/>
</g>
</g>
<g id="ytick5">
<g id="line2d26">
<g ><use style="fill: none; stroke: #000000; stroke-width: 0.500000; stroke-linejoin: miter; stroke-linecap: butt;  opacity: 1.000000" xlink:href="#m3400efa6b1638b3fea9e19e898273957" x="72.000000" y="235.200000"/>
</g></g>
<g id="line2d27">
<g ><use style="fill: none; stroke: #000000; stroke-width: 0.500000; stroke-linejoin: miter; stroke-linecap: butt;  opacity: 1.000000" xlink:href="#m20b58b2501143cb5e0a5e8f1ef6f1643" x="518.400000" y="235.200000"/>
</g></g>
<defs>
<path id="c_cc8d6d580d1b10c8632f7a42cd53db8a" d="M33.015625 -40.375000q-6.640625 0.000000 -10.531250 4.546875q-3.875000 4.531250 -3.875000 12.437500q0.000000 7.859375 3.875000 12.437500q3.890625 4.562500 10.531250 4.562500q6.640625 0.000000 10.515625 -4.562500q3.875000 -4.578125 3.875000 -12.437500q0.000000 -7.906250 -3.875000 -12.437500q-3.875000 -4.546875 -10.515625 -4.546875M52.593750 -71.296875l0.000000 8.984375q-3.718750 -1.750000 -7.500000 -2.671875q-3.781250 -0.937500 -7.500000 -0.937500q-9.765625 0.000000 -14.921875 6.593750q-5.140625 6.593750 -5.875000 19.921875q2.875000 -4.250000 7.218750 -6.515625q4.359375 -2.265625 9.578125 -2.265625q10.984375 0.000000 17.359375 6.671875q6.375000 6.656250 6.375000 18.125000q0.000000 11.234375 -6.640625 18.031250q-6.640625 6.781250 -17.671875 6.781250q-12.656250 0.000000 -19.343750 -9.687500q-6.687500 -9.703125 -6.687500 -28.109375q0.000000 -17.281250 8.203125 -27.562500q8.203125 -10.281250 22.015625 -10.281250q3.718750 0.000000 7.500000 0.734375q3.781250 0.734375 7.890625 2.187500"/>
</defs>
<g style="fill: #000000; opacity: 1.000000" transform="translate(21.796875,239.567188)scale(0.120000)">
<use xlink:href="#c_6a8d56c819c37117ab4cf023bec22a5a"/>
<use xlink:href="#c_cc8d6d580d1b10c8632f7a42cd53db8a" x="83.789062"/>
<use xlink:href="#c_1260a2df50f305f3db244e29828f968e" x="147.412109"/>
<use xlink:href="#c_7a2040fe3b94fcd41d0a72c84e93b115" x="211.035156"/>
<use xlink:href="#c_7a2040fe3b94fcd41d0a72c84e93b115" x="274.658203"/>
<use xlink:href="#c_7a2040fe3b94fcd41d0a72c84e93b115" x="338.281250"/>
</g>
</g>
<g id="ytick6">
<g id="line2d28">
<g ><use style="fill: none; stroke: #000000; stroke-width: 0.500000; stroke-linejoin: miter; stroke-linecap: butt;  opacity: 1.000000" xlink:href="#m3400efa6b1638b3fea9e19e898273957" x="72.000000" y="196.800000"/>
</g></g>
<g id="line2d29">
<g ><use style="fill: none; stroke: #000000; stroke-width: 0.500000; stroke-linejoin: miter; stroke-linecap: butt;  opacity: 1.000000" xlink:href="#m20b58b2501143cb5e0a5e8f1ef6f1643" x="518.400000" y="196.800000"/>
</g></g>
<g style="fill: #000000; opacity: 1.000000" transform="translate(21.796875,201.167188)scale(0.120000)">
<use xlink:href="#c_6a8d56c819c37117ab4cf023bec22a5a"/>
<use xlink:href="#c_cc8d6d580d1b10c8632f7a42cd53db8a" x="83.789062"/>
<use xlink:href="#c_7a2040fe3b94fcd41d0a72c84e93b115" x="147.412109"/>
<use xlink:href="#c_7a2040fe3b94fcd41d0a72c84e93b115" x="211.035156"/>
<use xlink:href="#c_7a2040fe3b94fcd41d0a72c84e93b115" x="274.658203"/>
<use xlink:href="#c_7a2040fe3b94fcd41d0a72c84e93b115" x="338.281250"/>
</g>
</g>
<g id="ytick7">
<g id="line2d30">
<g ><use style="fill: none; stroke: #000000; stroke-width: 0.500000; stroke-linejoin: miter; stroke-linecap: butt;  opacity: 1.000000" xlink:href="#m3400efa6b1638b3fea9e19e898273957" x="72.000000" y="158.400000"/>
</g></g>
<g id="line2d31">
<g ><use style="fill: none; stroke: #000000; stroke-width: 0.500000; stroke-linejoin: miter; stroke-linecap: butt;  opacity: 1.000000" xlink:href="#m20b58b2501143cb5e0a5e8f1ef6f1643" x="518.400000" y="158.400000"/>
</g></g>
<g style="fill: #000000; opacity: 1.000000" transform="translate(21.796875,162.767188)scale(0.120000)">
<use xlink:href="#c_6a8d56c819c37117ab4cf023bec22a5a"/>
<use xlink:href="#c_1260a2df50f305f3db244e29828f968e" x="83.789062"/>
<use xlink:href="#c_1260a2df50f305f3db244e29828f968e" x="147.412109"/>
<use xlink:href="#c_7a2040fe3b94fcd41d0a72c84e93b115" x="211.035156"/>
<use xlink:href="#c_7a2040fe3b94fcd41d0a72c84e93b115" x="274.658203"/>
<use xlink:href="#c_7a2040fe3b94fcd41d0a72c84e93b115" x="338.281250"/>
</g>
</g>
<g id="ytick8">
<g id="line2d32">
<g ><use style="fill: none; stroke: #000000; stroke-width: 0.500000; stroke-linejoin: miter; stroke-linecap: butt;  opacity: 1.000000" xlink:href="#m3400efa6b1638b3fea9e19e898273957" x="72.000000" y="120.000000"/>
</g></g>
<g id="line2d33">
<g ><use style="fill: none; stroke: #000000; stroke-width: 0.500000; stroke-linejoin: miter; stroke-linecap: butt;  opacity: 1.000000" xlink:href="#m20b58b2501143cb5e0a5e8f1ef6f1643" x="518.400000" y="120.000000"/>
</g></g>
<g style="fill: #000000; opacity: 1.000000" transform="translate(21.796875,124.367188)scale(0.120000)">
<use xlink:href="#c_6a8d56c819c37117ab4cf023bec22a5a"/>
<use xlink:href="#c_1260a2df50f305f3db244e29828f968e" x="83.789062"/>
<use xlink:href="#c_7a2040fe3b94fcd41d0a72c84e93b115" x="147.412109"/>
<use xlink:href="#c_7a2040fe3b94fcd41d0a72c84e93b115" x="211.035156"/>
<use xlink:href="#c_7a2040fe3b94fcd41d0a72c84e93b115" x="274.658203"/>
<use xlink:href="#c_7a2040fe3b94fcd41d0a72c84e93b115" x="338.281250"/>
</g>
</g>
<g id="ytick9">
<g id="line2d34">
<g ><use style="fill: none; stroke: #000000; stroke-width: 0.500000; stroke-linejoin: miter; stroke-linecap: butt;  opacity: 1.000000" xlink:href="#m3400efa6b1638b3fea9e19e898273957" x="72.000000" y="81.600000"/>
</g></g>
<g id="line2d35">
<g ><use style="fill: none; stroke: #000000; stroke-width: 0.500000; stroke-linejoin: miter; stroke-linecap: butt;  opacity: 1.000000" xlink:href="#m20b58b2501143cb5e0a5e8f1ef6f1643" x="518.400000" y="81.600000"/>
</g></g>
<g style="fill: #000000; opacity: 1.000000" transform="translate(21.796875,85.967188)scale(0.120000)">
<use xlink:href="#c_6a8d56c819c37117ab4cf023bec22a5a"/>
<use xlink:href="#c_a0416418d96557a09b8c1332d34883ba" x="83.789062"/>
<use xlink:href="#c_1260a2df50f305f3db244e29828f968e" x="147.412109"/>
<use xlink:href="#c_7a2040fe3b94fcd41d0a72c84e93b115" x="211.035156"/>
<use xlink:href="#c_7a2040fe3b94fcd41d0a72c84e93b115" x="274.658203"/>
<use xlink:href="#c_7a2040fe3b94fcd41d0a72c84e93b115" x="338.281250"/>
</g>
</g>
<g id="ytick10">
<g id="line2d36">
<g ><use style="fill: none; stroke: #000000; stroke-width: 0.500000; stroke-linejoin: miter; stroke-linecap: butt;  opacity: 1.000000" xlink:href="#m3400efa6b1638b3fea9e19e898273957" x="72.000000" y="43.200000"/>
</g></g>
<g id="line2d37">
<g ><use style="fill: none; stroke: #000000; stroke-width: 0.500000; stroke-linejoin: miter; stroke-linecap: butt;  opacity: 1.000000" xlink:href="#m20b58b2501143cb5e0a5e8f1ef6f1643" x="518.400000" y="43.200000"/>
</g></g>
<g style="fill: #000000; opacity: 1.000000" transform="translate(21.796875,47.567188)scale(0.120000)">
<use xlink:href="#c_6a8d56c819c37117ab4cf023bec22a5a"/>
<use xlink:href="#c_a0416418d96557a09b8c1332d34883ba" x="83.789062"/>
<use xlink:href="#c_7a2040fe3b94fcd41d0a72c84e93b115" x="147.412109"/>
<use xlink:href="#c_7a2040fe3b94fcd41d0a72c84e93b115" x="211.035156"/>
<use xlink:href="#c_7a2040fe3b94fcd41d0a72c84e93b115" x="274.658203"/>
<use xlink:href="#c_7a2040fe3b94fcd41d0a72c84e93b115" x="338.281250"/>
</g>
</g>
</g>
<path style="fill: none; stroke: #000000; stroke-width: 1.000000; stroke-linejoin: miter; stroke-linecap: square;  opacity: 1.000000"  d="M72.000000 388.800000L518.400000 388.800000L518.400000 43.200000
L72.000000 43.200000L72.000000 388.800000"/>
<g id="legend1">
<path style="fill: #ffffff; stroke: #000000; stroke-width: 1.000000; stroke-linejoin: miter; stroke-linecap: square;  opacity: 1.000000"  d="M328.953125 381.800000L511.400000 381.800000L511.400000 274.865625
L328.953125 274.865625L328.953125 381.800000z"/>
<g id="line2d38">
<path style="fill: none; stroke: #0000ff; stroke-width: 1.000000; stroke-linejoin: miter; stroke-linecap: square;  opacity: 1.000000"  d="M338.753125 286.206250L345.286458 286.206250L351.819792 286.206250
L358.353125 286.206250"/>
</g>
<g id="line2d39">
</g>
<defs>
<path id="c_0f8c41144cfbf448378cb6fd1cc8e549" d="M18.312500 -70.218750l0.000000 15.531250l18.500000 0.000000l0.000000 6.984375l-18.500000 0.000000l0.000000 29.687500q0.000000 6.687500 1.828125 8.593750q1.828125 1.906250 7.453125 1.906250l9.218750 0.000000l0.000000 7.515625l-9.218750 0.000000q-10.406250 0.000000 -14.359375 -3.875000q-3.953125 -3.890625 -3.953125 -14.140625l0.000000 -29.687500l-6.593750 0.000000l0.000000 -6.984375l6.593750 0.000000l0.000000 -15.531250z"/>
<path id="c_0bce5afba2dc6b9024b26277c38ad8e8" d="M56.203125 -29.593750l0.000000 4.390625l-41.312500 0.000000q0.593750 9.281250 5.593750 14.140625q5.000000 4.859375 13.937500 4.859375q5.171875 0.000000 10.031250 -1.265625q4.859375 -1.265625 9.656250 -3.812500l0.000000 8.500000q-4.843750 2.046875 -9.921875 3.125000q-5.078125 1.078125 -10.296875 1.078125q-13.093750 0.000000 -20.734375 -7.609375q-7.640625 -7.625000 -7.640625 -20.625000q0.000000 -13.421875 7.250000 -21.296875q7.250000 -7.890625 19.562500 -7.890625q11.031250 0.000000 17.453125 7.109375q6.421875 7.093750 6.421875 19.296875M47.218750 -32.234375q-0.093750 -7.359375 -4.125000 -11.750000q-4.031250 -4.406250 -10.671875 -4.406250q-7.515625 0.000000 -12.031250 4.250000q-4.515625 4.250000 -5.203125 11.968750z"/>
<path id="c_4653c6dfde66c7610eae0911760d3490" d="M52.000000 -44.187500q3.375000 -6.062500 8.062500 -8.937500q4.687500 -2.875000 11.031250 -2.875000q8.546875 0.000000 13.187500 5.984375q4.640625 5.968750 4.640625 17.000000l0.000000 33.015625l-9.031250 0.000000l0.000000 -32.718750q0.000000 -7.859375 -2.796875 -11.656250q-2.781250 -3.812500 -8.484375 -3.812500q-6.984375 0.000000 -11.046875 4.640625q-4.046875 4.625000 -4.046875 12.640625l0.000000 30.906250l-9.031250 0.000000l0.000000 -32.718750q0.000000 -7.906250 -2.781250 -11.687500q-2.781250 -3.781250 -8.593750 -3.781250q-6.890625 0.000000 -10.953125 4.656250q-4.046875 4.656250 -4.046875 12.625000l0.000000 30.906250l-9.031250 0.000000l0.000000 -54.687500l9.031250 0.000000l0.000000 8.500000q3.078125 -5.031250 7.375000 -7.421875q4.296875 -2.390625 10.203125 -2.390625q5.968750 0.000000 10.140625 3.031250q4.171875 3.015625 6.171875 8.781250"/>
<path id="c_f15a64fcd463ef4629c48bab42cde24c" d="M18.109375 -8.203125l0.000000 29.000000l-9.031250 0.000000l0.000000 -75.484375l9.031250 0.000000l0.000000 8.296875q2.843750 -4.875000 7.156250 -7.234375q4.328125 -2.375000 10.328125 -2.375000q9.968750 0.000000 16.187500 7.906250q6.234375 7.906250 6.234375 20.796875q0.000000 12.890625 -6.234375 20.812500q-6.218750 7.906250 -16.187500 7.906250q-6.000000 0.000000 -10.328125 -2.375000q-4.312500 -2.375000 -7.156250 -7.250000M48.687500 -27.296875q0.000000 -9.906250 -4.078125 -15.546875q-4.078125 -5.640625 -11.203125 -5.640625q-7.140625 0.000000 -11.218750 5.640625q-4.078125 5.640625 -4.078125 15.546875q0.000000 9.906250 4.078125 15.546875q4.078125 5.640625 11.218750 5.640625q7.125000 0.000000 11.203125 -5.640625q4.078125 -5.640625 4.078125 -15.546875"/>
<path id="c_d41d8cd98f00b204e9800998ecf8427e" d=""/>
<path id="c_8c0379a31aa3b07b28207e25658c6113" d="M10.593750 -45.406250l62.593750 0.000000l0.000000 8.203125l-62.593750 0.000000zM10.593750 -25.484375l62.593750 0.000000l0.000000 8.296875l-62.593750 0.000000z"/>
<path id="c_ed3e21196fb739f392806f09ca0594ef" d="M10.687500 -12.406250l10.312500 0.000000l0.000000 12.406250l-10.312500 0.000000z"/>
</defs>
<g style="fill: #000000; opacity: 1.000000" transform="translate(373.753125,291.106250)scale(0.140000)">
<use xlink:href="#c_0f8c41144cfbf448378cb6fd1cc8e549"/>
<use xlink:href="#c_0bce5afba2dc6b9024b26277c38ad8e8" x="39.208984"/>
<use xlink:href="#c_4653c6dfde66c7610eae0911760d3490" x="100.732422"/>
<use xlink:href="#c_f15a64fcd463ef4629c48bab42cde24c" x="198.144531"/>
<use xlink:href="#c_d41d8cd98f00b204e9800998ecf8427e" x="261.621094"/>
<use xlink:href="#c_8c0379a31aa3b07b28207e25658c6113" x="293.408203"/>
<use xlink:href="#c_d41d8cd98f00b204e9800998ecf8427e" x="377.197266"/>
<use xlink:href="#c_42baa63129a918535c52adb20d687ea7" x="408.984375"/>
<use xlink:href="#c_ed3e21196fb739f392806f09ca0594ef" x="472.607422"/>
<use xlink:href="#c_7a2040fe3b94fcd41d0a72c84e93b115" x="504.394531"/>
<use xlink:href="#c_7a2040fe3b94fcd41d0a72c84e93b115" x="568.017578"/>
<use xlink:href="#c_7a2040fe3b94fcd41d0a72c84e93b115" x="631.640625"/>
<use xlink:href="#c_7a2040fe3b94fcd41d0a72c84e93b115" x="695.263672"/>
<use xlink:href="#c_7a2040fe3b94fcd41d0a72c84e93b115" x="758.886719"/>
<use xlink:href="#c_7a2040fe3b94fcd41d0a72c84e93b115" x="822.509766"/>
</g>
<g id="line2d40">
<path style="fill: none; stroke: #008000; stroke-width: 1.000000; stroke-linejoin: miter; stroke-linecap: square;  opacity: 1.000000"  d="M338.753125 306.753125L345.286458 306.753125L351.819792 306.753125
L358.353125 306.753125"/>
</g>
<g id="line2d41">
</g>
<g style="fill: #000000; opacity: 1.000000" transform="translate(373.753125,311.653125)scale(0.140000)">
<use xlink:href="#c_0f8c41144cfbf448378cb6fd1cc8e549"/>
<use xlink:href="#c_0bce5afba2dc6b9024b26277c38ad8e8" x="39.208984"/>
<use xlink:href="#c_4653c6dfde66c7610eae0911760d3490" x="100.732422"/>
<use xlink:href="#c_f15a64fcd463ef4629c48bab42cde24c" x="198.144531"/>
<use xlink:href="#c_d41d8cd98f00b204e9800998ecf8427e" x="261.621094"/>
<use xlink:href="#c_8c0379a31aa3b07b28207e25658c6113" x="293.408203"/>
<use xlink:href="#c_d41d8cd98f00b204e9800998ecf8427e" x="377.197266"/>
<use xlink:href="#c_1260a2df50f305f3db244e29828f968e" x="408.984375"/>
<use xlink:href="#c_ed3e21196fb739f392806f09ca0594ef" x="472.607422"/>
<use xlink:href="#c_7a2040fe3b94fcd41d0a72c84e93b115" x="504.394531"/>
<use xlink:href="#c_7a2040fe3b94fcd41d0a72c84e93b115" x="568.017578"/>
<use xlink:href="#c_7a2040fe3b94fcd41d0a72c84e93b115" x="631.640625"/>
<use xlink:href="#c_7a2040fe3b94fcd41d0a72c84e93b115" x="695.263672"/>
<use xlink:href="#c_7a2040fe3b94fcd41d0a72c84e93b115" x="758.886719"/>
<use xlink:href="#c_7a2040fe3b94fcd41d0a72c84e93b115" x="822.509766"/>
</g>
<g id="line2d42">
<path style="fill: none; stroke: #ff0000; stroke-width: 1.000000; stroke-linejoin: miter; stroke-linecap: square;  opacity: 1.000000"  d="M338.753125 327.300000L345.286458 327.300000L351.819792 327.300000
L358.353125 327.300000"/>
</g>
<g id="line2d43">
</g>
<g style="fill: #000000; opacity: 1.000000" transform="translate(373.753125,332.200000)scale(0.140000)">
<use xlink:href="#c_0f8c41144cfbf448378cb6fd1cc8e549"/>
<use xlink:href="#c_0bce5afba2dc6b9024b26277c38ad8e8" x="39.208984"/>
<use xlink:href="#c_4653c6dfde66c7610eae0911760d3490" x="100.732422"/>
<use xlink:href="#c_f15a64fcd463ef4629c48bab42cde24c" x="198.144531"/>
<use xlink:href="#c_d41d8cd98f00b204e9800998ecf8427e" x="261.621094"/>
<use xlink:href="#c_8c0379a31aa3b07b28207e25658c6113" x="293.408203"/>
<use xlink:href="#c_d41d8cd98f00b204e9800998ecf8427e" x="377.197266"/>
<use xlink:href="#c_42baa63129a918535c52adb20d687ea7" x="408.984375"/>
<use xlink:href="#c_7a2040fe3b94fcd41d0a72c84e93b115" x="472.607422"/>
<use xlink:href="#c_ed3e21196fb739f392806f09ca0594ef" x="536.230469"/>
<use xlink:href="#c_7a2040fe3b94fcd41d0a72c84e93b115" x="568.017578"/>
<use xlink:href="#c_7a2040fe3b94fcd41d0a72c84e93b115" x="631.640625"/>
<use xlink:href="#c_7a2040fe3b94fcd41d0a72c84e93b115" x="695.263672"/>
<use xlink:href="#c_7a2040fe3b94fcd41d0a72c84e93b115" x="758.886719"/>
<use xlink:href="#c_7a2040fe3b94fcd41d0a72c84e93b115" x="822.509766"/>
<use xlink:href="#c_7a2040fe3b94fcd41d0a72c84e93b115" x="886.132812"/>
</g>
<g id="line2d44">
<path style="fill: none; stroke: #00bfbf; stroke-width: 1.000000; stroke-linejoin: miter; stroke-linecap: square;  opacity: 1.000000"  d="M338.753125 347.846875L345.286458 347.846875L351.819792 347.846875
L358.353125 347.846875"/>
</g>
<g id="line2d45">
</g>
<g style="fill: #000000; opacity: 1.000000" transform="translate(373.753125,352.746875)scale(0.140000)">
<use xlink:href="#c_0f8c41144cfbf448378cb6fd1cc8e549"/>
<use xlink:href="#c_0bce5afba2dc6b9024b26277c38ad8e8" x="39.208984"/>
<use xlink:href="#c_4653c6dfde66c7610eae0911760d3490" x="100.732422"/>
<use xlink:href="#c_f15a64fcd463ef4629c48bab42cde24c" x="198.144531"/>
<use xlink:href="#c_d41d8cd98f00b204e9800998ecf8427e" x="261.621094"/>
<use xlink:href="#c_8c0379a31aa3b07b28207e25658c6113" x="293.408203"/>
<use xlink:href="#c_d41d8cd98f00b204e9800998ecf8427e" x="377.197266"/>
<use xlink:href="#c_42baa63129a918535c52adb20d687ea7" x="408.984375"/>
<use xlink:href="#c_1260a2df50f305f3db244e29828f968e" x="472.607422"/>
<use xlink:href="#c_ed3e21196fb739f392806f09ca0594ef" x="536.230469"/>
<use xlink:href="#c_7a2040fe3b94fcd41d0a72c84e93b115" x="568.017578"/>
<use xlink:href="#c_7a2040fe3b94fcd41d0a72c84e93b115" x="631.640625"/>
<use xlink:href="#c_7a2040fe3b94fcd41d0a72c84e93b115" x="695.263672"/>
<use xlink:href="#c_7a2040fe3b94fcd41d0a72c84e93b115" x="758.886719"/>
<use xlink:href="#c_7a2040fe3b94fcd41d0a72c84e93b115" x="822.509766"/>
<use xlink:href="#c_7a2040fe3b94fcd41d0a72c84e93b115" x="886.132812"/>
</g>
<g id="line2d46">
<path style="fill: none; stroke: #bf00bf; stroke-width: 1.000000; stroke-linejoin: miter; stroke-linecap: square;  opacity: 1.000000"  d="M338.753125 368.393750L345.286458 368.393750L351.819792 368.393750
L358.353125 368.393750"/>
</g>
<g id="line2d47">
</g>
<g style="fill: #000000; opacity: 1.000000" transform="translate(373.753125,373.293750)scale(0.140000)">
<use xlink:href="#c_0f8c41144cfbf448378cb6fd1cc8e549"/>
<use xlink:href="#c_0bce5afba2dc6b9024b26277c38ad8e8" x="39.208984"/>
<use xlink:href="#c_4653c6dfde66c7610eae0911760d3490" x="100.732422"/>
<use xlink:href="#c_f15a64fcd463ef4629c48bab42cde24c" x="198.144531"/>
<use xlink:href="#c_d41d8cd98f00b204e9800998ecf8427e" x="261.621094"/>
<use xlink:href="#c_8c0379a31aa3b07b28207e25658c6113" x="293.408203"/>
<use xlink:href="#c_d41d8cd98f00b204e9800998ecf8427e" x="377.197266"/>
<use xlink:href="#c_ed3f3ed3ebfbd18bcb9c012009a68ad1" x="408.984375"/>
<use xlink:href="#c_7a2040fe3b94fcd41d0a72c84e93b115" x="472.607422"/>
<use xlink:href="#c_ed3e21196fb739f392806f09ca0594ef" x="536.230469"/>
<use xlink:href="#c_7a2040fe3b94fcd41d0a72c84e93b115" x="568.017578"/>
<use xlink:href="#c_7a2040fe3b94fcd41d0a72c84e93b115" x="631.640625"/>
<use xlink:href="#c_7a2040fe3b94fcd41d0a72c84e93b115" x="695.263672"/>
<use xlink:href="#c_7a2040fe3b94fcd41d0a72c84e93b115" x="758.886719"/>
<use xlink:href="#c_7a2040fe3b94fcd41d0a72c84e93b115" x="822.509766"/>
<use xlink:href="#c_7a2040fe3b94fcd41d0a72c84e93b115" x="886.132812"/>
</g>
</g>
</g>
</g>
</svg>
